<?xml version="1.0" encoding="utf-8"?>
<!-- Generator: Adobe Illustrator 19.0.0, SVG Export Plug-In . SVG Version: 6.00 Build 0)  -->
<svg version="1.1" id="Layer_1" xmlns="http://www.w3.org/2000/svg" xmlns:xlink="http://www.w3.org/1999/xlink" x="0px" y="0px"
	 viewBox="0 0 229.8 225" style="enable-background:new 0 0 229.8 225;" xml:space="preserve">
<style type="text/css">
	.st0{fill:#3BB2F7;}
	.st1{fill:#FFFFFF;}
</style>
<circle id="XMLID_45_" class="st0" cx="113.5" cy="111.2" r="98.4"/>
<g id="XMLID_64_">
	<path id="XMLID_67_" class="st1" d="M82,92.9V70.7h7.9c1.8,0,3.4,0.3,4.7,0.9c1.3,0.6,2.5,1.4,3.4,2.4s1.6,2.2,2.1,3.5
		c0.5,1.3,0.7,2.8,0.7,4.3c0,1.7-0.3,3.2-0.8,4.6c-0.5,1.4-1.2,2.5-2.2,3.5c-0.9,1-2.1,1.7-3.4,2.3c-1.3,0.5-2.8,0.8-4.5,0.8H82z
		 M97.2,81.8c0-1.2-0.2-2.2-0.5-3.2c-0.3-1-0.8-1.8-1.4-2.5s-1.4-1.2-2.3-1.6c-0.9-0.4-1.9-0.6-3.1-0.6h-4.4v16.1h4.4
		c1.2,0,2.2-0.2,3.1-0.6c0.9-0.4,1.7-1,2.3-1.7c0.6-0.7,1.1-1.6,1.4-2.6S97.2,82.9,97.2,81.8z"/>
	<path id="XMLID_70_" class="st1" d="M113.7,93.1c-1.6,0-3-0.3-4.3-1c-1.3-0.6-2.4-1.5-3.4-2.5s-1.7-2.3-2.2-3.6s-0.8-2.7-0.8-4.2
		c0-1.5,0.3-2.9,0.8-4.3c0.5-1.4,1.3-2.6,2.2-3.6c1-1,2.1-1.9,3.4-2.5c1.3-0.6,2.7-0.9,4.3-0.9c1.6,0,3,0.3,4.3,1s2.4,1.5,3.4,2.6
		c0.9,1.1,1.7,2.3,2.2,3.6c0.5,1.3,0.8,2.7,0.8,4.1c0,1.5-0.3,2.9-0.8,4.3c-0.5,1.4-1.3,2.6-2.2,3.6c-1,1-2.1,1.9-3.4,2.5
		C116.6,92.8,115.2,93.1,113.7,93.1z M106.6,81.8c0,1,0.2,2.1,0.5,3s0.8,1.8,1.4,2.6c0.6,0.8,1.4,1.4,2.2,1.8s1.9,0.7,2.9,0.7
		c1.1,0,2.1-0.2,3-0.7c0.9-0.5,1.6-1.1,2.2-1.9c0.6-0.8,1.1-1.6,1.4-2.6c0.3-1,0.5-1.9,0.5-2.9c0-1.1-0.2-2.1-0.5-3.1
		c-0.3-1-0.8-1.8-1.4-2.6c-0.6-0.7-1.4-1.3-2.2-1.8c-0.9-0.4-1.8-0.7-2.9-0.7c-1.1,0-2.1,0.2-3,0.7c-0.9,0.5-1.6,1.1-2.2,1.8
		c-0.6,0.8-1.1,1.6-1.4,2.6C106.8,79.8,106.6,80.8,106.6,81.8z"/>
	<path id="XMLID_73_" class="st1" d="M131.5,77.3v15.7H128V70.7h2.8l12.7,16.1v-16h3.5v22.2h-2.9L131.5,77.3z"/>
	<path id="XMLID_75_" class="st1" d="M43,143.9c0-1.7,0.1-3.3,0.4-4.7c0.3-1.4,0.7-2.7,1.4-3.9c0.7-1.2,1.6-2.3,2.8-3.4
		c1.2-1,2.7-2.1,4.5-3.1c1.6-0.9,3-1.6,4.2-2.2s2.2-1.2,3-1.8c0.8-0.5,1.4-1.1,1.9-1.7c0.4-0.6,0.6-1.2,0.6-1.9c0-1.2-0.5-2.2-1.4-3
		c-0.9-0.8-2.3-1.2-4-1.2c-0.9,0-1.8,0.1-2.6,0.4c-0.8,0.3-1.5,0.6-2.2,1c-0.7,0.4-1.3,0.9-1.9,1.4c-0.6,0.5-1.1,1.1-1.5,1.7l-5-5.7
		c0.5-0.5,1.2-1.1,2.1-1.8c0.9-0.6,2-1.2,3.3-1.8c1.3-0.6,2.7-1,4.2-1.4c1.5-0.4,3.2-0.6,4.9-0.6c2,0,3.7,0.2,5.3,0.7
		c1.5,0.5,2.9,1.2,3.9,2c1.1,0.9,1.9,1.9,2.4,3.1c0.6,1.2,0.8,2.5,0.8,4c0,1.4-0.3,2.6-0.8,3.6c-0.5,1-1.1,2-1.9,2.8
		c-0.8,0.8-1.6,1.5-2.5,2.1c-0.9,0.6-1.8,1.1-2.6,1.6c-0.7,0.4-1.5,0.8-2.4,1.3c-0.9,0.5-1.8,1.1-2.6,1.7c-0.9,0.6-1.7,1.2-2.4,1.9
		c-0.7,0.6-1.3,1.3-1.7,1.9H71v7H43z"/>
	<path id="XMLID_77_" class="st1" d="M90.4,125.4c1.9,0,3.7,0.3,5.4,1c1.7,0.6,3.1,1.5,4.3,2.7c1.2,1.2,2.1,2.6,2.8,4.2
		c0.7,1.6,1,3.4,1,5.4c0,2.1-0.4,4-1.1,5.7c-0.8,1.7-1.8,3.2-3.2,4.4c-1.4,1.2-3,2.2-4.8,2.8c-1.9,0.7-3.9,1-6,1
		c-3,0-5.7-0.6-8.1-1.9s-4.2-3-5.4-5.2l4.5-4.6c1.1,1.5,2.4,2.7,4.1,3.6c1.6,0.9,3.3,1.3,5.1,1.3c2.1,0,3.8-0.6,5.1-1.9
		c1.3-1.3,2-2.9,2-5c0-2-0.6-3.6-1.9-4.9c-1.3-1.2-2.9-1.9-4.8-1.9c-1.3,0-2.5,0.3-3.6,0.9c-1.1,0.6-2,1.4-2.6,2.4h-6.8
		c0-0.1,0.1-0.6,0.2-1.3c0.2-0.8,0.3-1.7,0.6-2.9c0.2-1.2,0.5-2.5,0.8-3.9c0.3-1.5,0.6-2.9,0.9-4.4c0.7-3.6,1.5-7.5,2.3-12h20.3v7.1
		H86.7l-1.7,9.2c0.5-0.5,1.2-0.9,2.1-1.2C88,125.6,89.1,125.4,90.4,125.4z"/>
	<path id="XMLID_79_" class="st1" d="M138.5,126.9c0,2.6-0.4,4.9-1.1,7.1s-1.8,4-3.1,5.6c-1.3,1.6-2.9,2.8-4.8,3.7
		c-1.8,0.9-3.8,1.3-6,1.3c-2.2,0-4.2-0.4-6-1.3c-1.8-0.9-3.4-2.1-4.7-3.7c-1.3-1.6-2.4-3.4-3.1-5.6s-1.1-4.5-1.1-7.1
		c0-2.6,0.4-4.9,1.1-7.1s1.8-4,3.1-5.6s2.9-2.8,4.7-3.7c1.8-0.9,3.8-1.3,6-1.3c2.1,0,4.1,0.4,6,1.3c1.8,0.9,3.4,2.1,4.8,3.7
		s2.4,3.4,3.1,5.6S138.5,124.4,138.5,126.9z M130.7,126.9c0-1.5-0.2-3-0.5-4.3c-0.3-1.3-0.8-2.4-1.5-3.3c-0.6-0.9-1.4-1.6-2.3-2.1
		s-1.8-0.8-2.9-0.8c-1.1,0-2.1,0.3-2.9,0.8c-0.9,0.5-1.6,1.2-2.3,2.1c-0.6,0.9-1.1,2-1.5,3.3c-0.3,1.3-0.5,2.7-0.5,4.3
		c0,1.5,0.2,3,0.5,4.2c0.3,1.3,0.8,2.4,1.5,3.3c0.6,0.9,1.4,1.6,2.3,2.1c0.9,0.5,1.8,0.8,2.9,0.8c1,0,2-0.3,2.9-0.8
		c0.9-0.5,1.6-1.2,2.3-2.1c0.6-0.9,1.1-2,1.5-3.3C130.5,129.9,130.7,128.5,130.7,126.9z"/>
	<path id="XMLID_91_" class="st1" d="M180.9,113.5c-0.2-0.3-0.7-0.6-1.3-1c-0.6-0.4-1.4-0.8-2.3-1.2s-1.8-0.8-2.9-1.1
		c-1-0.3-2.1-0.6-3.3-0.7v10l1.5,0.3c2,0.5,3.8,1.1,5.5,1.7s3,1.4,4.2,2.3c1.1,0.9,2,2,2.6,3.3c0.6,1.3,0.9,2.9,0.9,4.8
		c0,2.1-0.4,3.9-1.1,5.5c-0.8,1.5-1.8,2.7-3.1,3.7c-1.3,1-2.8,1.7-4.5,2.2c-1.7,0.5-3.5,0.8-5.4,0.8v6.4h-3.5v-6.4
		c-2.7-0.2-5.4-0.7-7.9-1.7c-2.6-0.9-4.9-2.1-7-3.6l3.5-6.9c0.3,0.3,0.8,0.7,1.6,1.2s1.7,1,2.7,1.5c1.1,0.5,2.2,0.9,3.5,1.4
		c1.3,0.4,2.6,0.7,4,0.9v-10c-0.3-0.1-0.7-0.2-1-0.3c-0.3-0.1-0.7-0.2-1-0.3c-2-0.5-3.7-1.1-5.1-1.8s-2.7-1.4-3.6-2.3
		c-1-0.9-1.7-1.9-2.2-3c-0.5-1.1-0.7-2.5-0.7-4.1c0-1.9,0.3-3.7,1-5.2c0.7-1.5,1.6-2.8,2.8-3.9c1.2-1.1,2.6-1.9,4.2-2.6
		s3.4-1,5.2-1.2v-5.9h3.5v5.9c2.6,0.2,4.9,0.7,7.1,1.6c2.1,0.9,4,1.8,5.7,3L180.9,113.5z M163.3,114.1c0,1.3,0.5,2.3,1.4,3
		c0.9,0.7,2.3,1.3,4.2,1.8v-9.4C165.1,109.7,163.3,111.3,163.3,114.1z M177.4,133c0-1.3-0.5-2.3-1.6-3.1c-1.1-0.7-2.6-1.4-4.5-2v9.3
		C175.3,137.1,177.4,135.7,177.4,133z"/>
</g>
</svg>
