<?xml version="1.0" encoding="utf-8"?>
<!-- Generator: Adobe Illustrator 19.0.0, SVG Export Plug-In . SVG Version: 6.00 Build 0)  -->
<svg version="1.1" id="Layer_1" xmlns="http://www.w3.org/2000/svg" xmlns:xlink="http://www.w3.org/1999/xlink" x="0px" y="0px"
	 viewBox="0 0 229.8 225" style="enable-background:new 0 0 229.8 225;" xml:space="preserve">
<style type="text/css">
	.st0{fill:none;stroke:#51ADE1;stroke-miterlimit:10;}
	.st1{fill:#3BB2F7;}
</style>
<circle id="XMLID_45_" class="st0" cx="113.5" cy="111.2" r="98.4"/>
<g id="XMLID_43_">
	<path id="XMLID_44_" class="st1" d="M82,92.9V70.7h7.9c1.8,0,3.4,0.3,4.7,0.9c1.3,0.6,2.5,1.4,3.4,2.4s1.6,2.2,2.1,3.5
		c0.5,1.3,0.7,2.8,0.7,4.3c0,1.7-0.3,3.2-0.8,4.6c-0.5,1.4-1.2,2.5-2.2,3.5c-0.9,1-2.1,1.7-3.4,2.3c-1.3,0.5-2.8,0.8-4.5,0.8H82z
		 M97.2,81.8c0-1.2-0.2-2.2-0.5-3.2c-0.3-1-0.8-1.8-1.4-2.5s-1.4-1.2-2.3-1.6c-0.9-0.4-1.9-0.6-3.1-0.6h-4.4v16.1h4.4
		c1.2,0,2.2-0.2,3.1-0.6c0.9-0.4,1.7-1,2.3-1.7c0.6-0.7,1.1-1.6,1.4-2.6S97.2,82.9,97.2,81.8z"/>
	<path id="XMLID_49_" class="st1" d="M113.7,93.1c-1.6,0-3-0.3-4.3-1c-1.3-0.6-2.4-1.5-3.4-2.5s-1.7-2.3-2.2-3.6s-0.8-2.7-0.8-4.2
		c0-1.5,0.3-2.9,0.8-4.3c0.5-1.4,1.3-2.6,2.2-3.6c1-1,2.1-1.9,3.4-2.5c1.3-0.6,2.7-0.9,4.3-0.9c1.6,0,3,0.3,4.3,1s2.4,1.5,3.4,2.6
		c0.9,1.1,1.7,2.3,2.2,3.6c0.5,1.3,0.8,2.7,0.8,4.1c0,1.5-0.3,2.9-0.8,4.3c-0.5,1.4-1.3,2.6-2.2,3.6c-1,1-2.1,1.9-3.4,2.5
		C116.6,92.8,115.2,93.1,113.7,93.1z M106.6,81.8c0,1,0.2,2.1,0.5,3s0.8,1.8,1.4,2.6c0.6,0.8,1.4,1.4,2.2,1.8s1.9,0.7,2.9,0.7
		c1.1,0,2.1-0.2,3-0.7c0.9-0.5,1.6-1.1,2.2-1.9c0.6-0.8,1.1-1.6,1.4-2.6c0.3-1,0.5-1.9,0.5-2.9c0-1.1-0.2-2.1-0.5-3.1
		c-0.3-1-0.8-1.8-1.4-2.6c-0.6-0.7-1.4-1.3-2.2-1.8c-0.9-0.4-1.8-0.7-2.9-0.7c-1.1,0-2.1,0.2-3,0.7c-0.9,0.5-1.6,1.1-2.2,1.8
		c-0.6,0.8-1.1,1.6-1.4,2.6C106.8,79.8,106.6,80.8,106.6,81.8z"/>
	<path id="XMLID_52_" class="st1" d="M131.5,77.3v15.7H128V70.7h2.8l12.7,16.1v-16h3.5v22.2h-2.9L131.5,77.3z"/>
	<path id="XMLID_54_" class="st1" d="M68.4,136.9v7H44.8v-7h8.2v-17.6c-0.3,0.5-0.9,0.9-1.7,1.4c-0.8,0.5-1.6,0.9-2.5,1.4
		c-0.9,0.4-1.8,0.8-2.8,1c-0.9,0.3-1.8,0.4-2.5,0.4v-7.3c0.7,0,1.5-0.2,2.6-0.7c1-0.4,2-1,3-1.6c1-0.6,1.8-1.2,2.5-1.8
		c0.7-0.6,1.2-1.1,1.4-1.4h8v26.1H68.4z"/>
	<path id="XMLID_56_" class="st1" d="M102.6,126.9c0,2.6-0.4,4.9-1.1,7.1s-1.8,4-3.1,5.6c-1.3,1.6-2.9,2.8-4.8,3.7
		c-1.8,0.9-3.8,1.3-6,1.3c-2.2,0-4.2-0.4-6-1.3c-1.8-0.9-3.4-2.1-4.7-3.7c-1.3-1.6-2.4-3.4-3.1-5.6s-1.1-4.5-1.1-7.1
		c0-2.6,0.4-4.9,1.1-7.1s1.8-4,3.1-5.6s2.9-2.8,4.7-3.7c1.8-0.9,3.8-1.3,6-1.3c2.1,0,4.1,0.4,6,1.3c1.8,0.9,3.4,2.1,4.8,3.7
		c1.3,1.6,2.4,3.4,3.1,5.6S102.6,124.4,102.6,126.9z M94.8,126.9c0-1.5-0.2-3-0.5-4.3c-0.3-1.3-0.8-2.4-1.5-3.3
		c-0.6-0.9-1.4-1.6-2.3-2.1c-0.9-0.5-1.8-0.8-2.9-0.8c-1.1,0-2.1,0.3-2.9,0.8c-0.9,0.5-1.6,1.2-2.3,2.1c-0.6,0.9-1.1,2-1.5,3.3
		c-0.3,1.3-0.5,2.7-0.5,4.3c0,1.5,0.2,3,0.5,4.2c0.3,1.3,0.8,2.4,1.5,3.3c0.6,0.9,1.4,1.6,2.3,2.1c0.9,0.5,1.8,0.8,2.9,0.8
		c1,0,2-0.3,2.9-0.8c0.9-0.5,1.6-1.2,2.3-2.1c0.6-0.9,1.1-2,1.5-3.3C94.6,129.9,94.8,128.5,94.8,126.9z"/>
	<path id="XMLID_59_" class="st1" d="M138.3,126.9c0,2.6-0.4,4.9-1.1,7.1s-1.8,4-3.1,5.6c-1.3,1.6-2.9,2.8-4.8,3.7
		c-1.8,0.9-3.8,1.3-6,1.3c-2.2,0-4.2-0.4-6-1.3c-1.8-0.9-3.4-2.1-4.7-3.7c-1.3-1.6-2.4-3.4-3.1-5.6s-1.1-4.5-1.1-7.1
		c0-2.6,0.4-4.9,1.1-7.1s1.8-4,3.1-5.6s2.9-2.8,4.7-3.7c1.8-0.9,3.8-1.3,6-1.3c2.1,0,4.1,0.4,6,1.3c1.8,0.9,3.4,2.1,4.8,3.7
		s2.4,3.4,3.1,5.6S138.3,124.4,138.3,126.9z M130.4,126.9c0-1.5-0.2-3-0.5-4.3c-0.3-1.3-0.8-2.4-1.5-3.3c-0.6-0.9-1.4-1.6-2.3-2.1
		s-1.8-0.8-2.9-0.8c-1.1,0-2.1,0.3-2.9,0.8c-0.9,0.5-1.6,1.2-2.3,2.1c-0.6,0.9-1.1,2-1.5,3.3c-0.3,1.3-0.5,2.7-0.5,4.3
		c0,1.5,0.2,3,0.5,4.2c0.3,1.3,0.8,2.4,1.5,3.3c0.6,0.9,1.4,1.6,2.3,2.1c0.9,0.5,1.8,0.8,2.9,0.8c1,0,2-0.3,2.9-0.8
		c0.9-0.5,1.6-1.2,2.3-2.1c0.6-0.9,1.1-2,1.5-3.3C130.2,129.9,130.4,128.5,130.4,126.9z"/>
	<path id="XMLID_62_" class="st1" d="M180.6,113.5c-0.2-0.3-0.7-0.6-1.3-1c-0.6-0.4-1.4-0.8-2.3-1.2s-1.8-0.8-2.9-1.1
		c-1-0.3-2.1-0.6-3.3-0.7v10l1.5,0.3c2,0.5,3.8,1.1,5.5,1.7s3,1.4,4.2,2.3c1.1,0.9,2,2,2.6,3.3c0.6,1.3,0.9,2.9,0.9,4.8
		c0,2.1-0.4,3.9-1.1,5.5c-0.8,1.5-1.8,2.7-3.1,3.7c-1.3,1-2.8,1.7-4.5,2.2c-1.7,0.5-3.5,0.8-5.4,0.8v6.4H168v-6.4
		c-2.7-0.2-5.4-0.7-7.9-1.7c-2.6-0.9-4.9-2.1-7-3.6l3.5-6.9c0.3,0.3,0.8,0.7,1.6,1.2s1.7,1,2.7,1.5c1.1,0.5,2.2,0.9,3.5,1.4
		c1.3,0.4,2.6,0.7,4,0.9v-10c-0.3-0.1-0.7-0.2-1-0.3c-0.3-0.1-0.7-0.2-1-0.3c-2-0.5-3.7-1.1-5.1-1.8s-2.7-1.4-3.6-2.3
		c-1-0.9-1.7-1.9-2.2-3c-0.5-1.1-0.7-2.5-0.7-4.1c0-1.9,0.3-3.7,1-5.2c0.7-1.5,1.6-2.8,2.8-3.9c1.2-1.1,2.6-1.9,4.2-2.6
		s3.4-1,5.2-1.2v-5.9h3.5v5.9c2.6,0.2,4.9,0.7,7.1,1.6c2.1,0.9,4,1.8,5.7,3L180.6,113.5z M163,114.1c0,1.3,0.5,2.3,1.4,3
		c0.9,0.7,2.3,1.3,4.2,1.8v-9.4C164.8,109.7,163,111.3,163,114.1z M177.1,133c0-1.3-0.5-2.3-1.6-3.1c-1.1-0.7-2.6-1.4-4.5-2v9.3
		C175,137.1,177.1,135.7,177.1,133z"/>
</g>
</svg>
