<?xml version="1.0" encoding="utf-8"?>
<!-- Generator: Adobe Illustrator 19.0.0, SVG Export Plug-In . SVG Version: 6.00 Build 0)  -->
<svg version="1.1" id="Layer_1" xmlns="http://www.w3.org/2000/svg" xmlns:xlink="http://www.w3.org/1999/xlink" x="0px" y="0px"
	 viewBox="-484 88 229.8 225" style="enable-background:new -484 88 229.8 225;" xml:space="preserve">
<style type="text/css">
	.st0{fill:none;stroke:#3BB2F7;stroke-miterlimit:10;}
	.st1{fill:#3BB2F7;}
</style>
<circle id="XMLID_45_" class="st0" cx="-370.5" cy="199.2" r="98.4"/>
<path id="XMLID_44_" class="st1" d="M-430.6,178.9v-22.2h7.9c1.8,0,3.4,0.3,4.7,0.9c1.3,0.6,2.5,1.4,3.4,2.4s1.6,2.2,2.1,3.5
	s0.7,2.8,0.7,4.3c0,1.7-0.3,3.2-0.8,4.6c-0.5,1.4-1.2,2.5-2.2,3.5c-0.9,1-2.1,1.7-3.4,2.3c-1.3,0.5-2.8,0.8-4.5,0.8h-7.9V178.9z
	 M-415.4,167.8c0-1.2-0.2-2.2-0.5-3.2c-0.3-1-0.8-1.8-1.4-2.5c-0.6-0.7-1.4-1.2-2.3-1.6c-0.9-0.4-1.9-0.6-3.1-0.6h-4.4V176h4.4
	c1.2,0,2.2-0.2,3.1-0.6s1.7-1,2.3-1.7c0.6-0.7,1.1-1.6,1.4-2.6C-415.6,170.1-415.4,168.9-415.4,167.8z"/>
<path id="XMLID_49_" class="st1" d="M-398.9,179.1c-1.6,0-3-0.3-4.3-1c-1.3-0.6-2.4-1.5-3.4-2.5s-1.7-2.3-2.2-3.6s-0.8-2.7-0.8-4.2
	s0.3-2.9,0.8-4.3s1.3-2.6,2.2-3.6c1-1,2.1-1.9,3.4-2.5c1.3-0.6,2.7-0.9,4.3-0.9s3,0.3,4.3,1c1.3,0.7,2.4,1.5,3.4,2.6
	c0.9,1.1,1.7,2.3,2.2,3.6s0.8,2.7,0.8,4.1c0,1.5-0.3,2.9-0.8,4.3c-0.5,1.4-1.3,2.6-2.2,3.6c-1,1-2.1,1.9-3.4,2.5
	C-396,178.8-397.4,179.1-398.9,179.1z M-406,167.8c0,1,0.2,2.1,0.5,3s0.8,1.8,1.4,2.6c0.6,0.8,1.4,1.4,2.2,1.8
	c0.8,0.4,1.9,0.7,2.9,0.7c1.1,0,2.1-0.2,3-0.7s1.6-1.1,2.2-1.9c0.6-0.8,1.1-1.6,1.4-2.6c0.3-1,0.5-1.9,0.5-2.9
	c0-1.1-0.2-2.1-0.5-3.1c-0.3-1-0.8-1.8-1.4-2.6c-0.6-0.7-1.4-1.3-2.2-1.8c-0.9-0.4-1.8-0.7-2.9-0.7s-2.1,0.2-3,0.7s-1.6,1.1-2.2,1.8
	c-0.6,0.8-1.1,1.6-1.4,2.6C-405.8,165.8-406,166.8-406,167.8z"/>
<path id="XMLID_52_" class="st1" d="M-381.1,163.3V179h-3.5v-22.3h2.8l12.7,16.1v-16h3.5V179h-2.9L-381.1,163.3z"/>
<path id="XMLID_54_" class="st1" d="M-354,156.7h3.1l8.8,22.3h-3.7l-2.4-6.1h-8.6l-2.3,6.1h-3.7L-354,156.7z M-348.9,170.3l-3.6-9.6
	l-3.7,9.6H-348.9z"/>
<path id="XMLID_57_" class="st1" d="M-325.2,159.8h-7.4V179h-3.5v-19.2h-7.4v-3.1h18.4v3.1H-325.2z"/>
<path id="XMLID_59_" class="st1" d="M-307,175.8v3.1h-15.3v-22.2h15v3.1h-11.5v6.3h9.9v2.9h-9.9v6.8H-307z"/>
<path id="XMLID_61_" class="st1" d="M-408.3,205.4c-0.2-0.3-0.7-0.6-1.3-1c-0.6-0.4-1.4-0.8-2.3-1.2c-0.9-0.4-1.8-0.8-2.9-1.1
	c-1-0.3-2.1-0.6-3.3-0.7v10l1.5,0.3c2,0.5,3.8,1.1,5.5,1.7c1.6,0.6,3,1.4,4.2,2.3c1.1,0.9,2,2,2.6,3.3s0.9,2.9,0.9,4.8
	c0,2.1-0.4,3.9-1.1,5.5c-0.8,1.5-1.8,2.7-3.1,3.7c-1.3,1-2.8,1.7-4.5,2.2c-1.7,0.5-3.5,0.8-5.4,0.8v6.4h-3.5V236
	c-2.7-0.2-5.4-0.7-7.9-1.7c-2.6-0.9-4.9-2.1-7-3.6l3.5-6.9c0.3,0.3,0.8,0.7,1.6,1.2c0.8,0.5,1.7,1,2.7,1.5c1.1,0.5,2.2,0.9,3.5,1.4
	c1.3,0.4,2.6,0.7,4,0.9v-10c-0.3-0.1-0.7-0.2-1-0.3c-0.3-0.1-0.7-0.2-1-0.3c-2-0.5-3.7-1.1-5.1-1.8c-1.5-0.6-2.7-1.4-3.6-2.3
	c-1-0.9-1.7-1.9-2.2-3s-0.7-2.5-0.7-4.1c0-1.9,0.3-3.7,1-5.2c0.7-1.5,1.6-2.8,2.8-3.9c1.2-1.1,2.6-1.9,4.2-2.6
	c1.6-0.6,3.4-1,5.2-1.2v-5.9h3.5v5.9c2.6,0.2,4.9,0.7,7.1,1.6c2.1,0.9,4,1.8,5.7,3L-408.3,205.4z M-426,206c0,1.3,0.5,2.3,1.4,3
	s2.3,1.3,4.2,1.8v-9.4C-424.1,201.6-426,203.2-426,206z M-411.9,224.9c0-1.3-0.5-2.3-1.6-3.1c-1.1-0.7-2.6-1.4-4.5-2v9.3
	C-413.9,229-411.9,227.6-411.9,224.9z"/>
<path id="XMLID_65_" class="st1" d="M-373.8,228.8v7h-23.6v-7h8.2v-17.6c-0.3,0.5-0.9,0.9-1.7,1.4c-0.8,0.5-1.6,0.9-2.5,1.4
	c-0.9,0.4-1.8,0.8-2.8,1c-0.9,0.3-1.8,0.4-2.5,0.4v-7.3c0.7,0,1.5-0.2,2.6-0.7c1-0.4,2-1,3-1.6c1-0.6,1.8-1.2,2.5-1.8
	c0.7-0.6,1.2-1.1,1.4-1.4h8v26.1L-373.8,228.8L-373.8,228.8z"/>
<path id="XMLID_67_" class="st1" d="M-339.6,218.8c0,2.6-0.4,4.9-1.1,7.1s-1.8,4-3.1,5.6s-2.9,2.8-4.8,3.7c-1.8,0.9-3.8,1.3-6,1.3
	c-2.2,0-4.2-0.4-6-1.3c-1.8-0.9-3.4-2.1-4.7-3.7c-1.3-1.6-2.4-3.4-3.1-5.6c-0.7-2.2-1.1-4.5-1.1-7.1s0.4-4.9,1.1-7.1
	c0.7-2.2,1.8-4,3.1-5.6s2.9-2.8,4.7-3.7c1.8-0.9,3.8-1.3,6-1.3c2.1,0,4.1,0.4,6,1.3c1.8,0.9,3.4,2.1,4.8,3.7s2.4,3.4,3.1,5.6
	C-340,213.9-339.6,216.3-339.6,218.8z M-347.4,218.8c0-1.5-0.2-3-0.5-4.3s-0.8-2.4-1.5-3.3c-0.6-0.9-1.4-1.6-2.3-2.1
	c-0.9-0.5-1.8-0.8-2.9-0.8c-1.1,0-2.1,0.3-2.9,0.8c-0.9,0.5-1.6,1.2-2.3,2.1c-0.6,0.9-1.1,2-1.5,3.3c-0.3,1.3-0.5,2.7-0.5,4.3
	s0.2,3,0.5,4.2c0.3,1.3,0.8,2.4,1.5,3.3c0.6,0.9,1.4,1.6,2.3,2.1c0.9,0.5,1.8,0.8,2.9,0.8c1,0,2-0.3,2.9-0.8
	c0.9-0.5,1.6-1.2,2.3-2.1c0.6-0.9,1.1-2,1.5-3.3C-347.6,221.8-347.4,220.4-347.4,218.8z"/>
<path id="XMLID_70_" class="st1" d="M-303.9,218.8c0,2.6-0.4,4.9-1.1,7.1s-1.8,4-3.1,5.6s-2.9,2.8-4.8,3.7c-1.8,0.9-3.8,1.3-6,1.3
	c-2.2,0-4.2-0.4-6-1.3c-1.8-0.9-3.4-2.1-4.7-3.7c-1.3-1.6-2.4-3.4-3.1-5.6s-1.1-4.5-1.1-7.1s0.4-4.9,1.1-7.1c0.7-2.2,1.8-4,3.1-5.6
	s2.9-2.8,4.7-3.7c1.8-0.9,3.8-1.3,6-1.3c2.1,0,4.1,0.4,6,1.3c1.8,0.9,3.4,2.1,4.8,3.7c1.3,1.6,2.4,3.4,3.1,5.6
	C-304.3,213.9-303.9,216.3-303.9,218.8z M-311.8,218.8c0-1.5-0.2-3-0.5-4.3c-0.3-1.3-0.8-2.4-1.5-3.3c-0.6-0.9-1.4-1.6-2.3-2.1
	s-1.8-0.8-2.9-0.8c-1.1,0-2.1,0.3-2.9,0.8s-1.6,1.2-2.3,2.1c-0.6,0.9-1.1,2-1.5,3.3c-0.3,1.3-0.5,2.7-0.5,4.3s0.2,3,0.5,4.2
	c0.3,1.3,0.8,2.4,1.5,3.3c0.6,0.9,1.4,1.6,2.3,2.1s1.8,0.8,2.9,0.8c1,0,2-0.3,2.9-0.8s1.6-1.2,2.3-2.1c0.6-0.9,1.1-2,1.5-3.3
	C-312,221.8-311.8,220.4-311.8,218.8z"/>
</svg>
