<?xml version="1.0" encoding="utf-8"?>
<!-- Generator: Adobe Illustrator 19.0.0, SVG Export Plug-In . SVG Version: 6.00 Build 0)  -->
<svg version="1.1" id="Layer_1" xmlns="http://www.w3.org/2000/svg" xmlns:xlink="http://www.w3.org/1999/xlink" x="0px" y="0px"
	 viewBox="-484 88 229.8 225" style="enable-background:new -484 88 229.8 225;" xml:space="preserve">
<style type="text/css">
	.st0{fill:#3BB2F7;}
	.st1{fill:none;}
	.st2{enable-background:new    ;}
	.st3{fill:#FFFFFF;}
</style>
<circle id="XMLID_45_" class="st0" cx="-369.1" cy="200.5" r="98.4"/>
<rect id="XMLID_15_" x="-455.2" y="157.4" class="st1" width="174.2" height="86.2"/>
<g class="st2">
	<path class="st3" d="M-430.3,180.2v-22.3h7.9c1.8,0,3.4,0.3,4.7,0.9c1.3,0.6,2.5,1.4,3.4,2.4s1.6,2.2,2.1,3.5s0.7,2.8,0.7,4.3
		c0,1.7-0.3,3.2-0.8,4.6s-1.2,2.5-2.2,3.5c-0.9,1-2.1,1.7-3.4,2.3c-1.3,0.5-2.8,0.8-4.5,0.8L-430.3,180.2L-430.3,180.2z
		 M-415.1,169.1c0-1.2-0.2-2.2-0.5-3.2s-0.8-1.8-1.4-2.5c-0.6-0.7-1.4-1.2-2.3-1.6c-0.9-0.4-1.9-0.6-3.1-0.6h-4.4v16.1h4.4
		c1.2,0,2.2-0.2,3.1-0.6s1.7-1,2.3-1.7s1.1-1.6,1.4-2.6S-415.1,170.2-415.1,169.1z"/>
	<path class="st3" d="M-398.6,180.4c-1.6,0-3-0.3-4.3-1s-2.4-1.5-3.4-2.5c-0.9-1.1-1.7-2.3-2.2-3.6c-0.5-1.4-0.8-2.7-0.8-4.2
		c0-1.5,0.3-2.9,0.8-4.3c0.5-1.4,1.3-2.6,2.2-3.6c1-1,2.1-1.9,3.4-2.5c1.3-0.6,2.7-0.9,4.3-0.9s3,0.3,4.3,1s2.4,1.5,3.4,2.6
		c0.9,1.1,1.7,2.3,2.2,3.6s0.8,2.7,0.8,4.1c0,1.5-0.3,2.9-0.8,4.3s-1.3,2.6-2.2,3.6c-1,1-2.1,1.9-3.4,2.5S-397.1,180.4-398.6,180.4z
		 M-405.7,169.1c0,1,0.2,2.1,0.5,3s0.8,1.8,1.4,2.6c0.6,0.8,1.4,1.4,2.2,1.8s1.9,0.7,2.9,0.7c1.1,0,2.1-0.2,3-0.7s1.6-1.1,2.2-1.9
		c0.6-0.8,1.1-1.6,1.4-2.6s0.5-1.9,0.5-2.9c0-1.1-0.2-2.1-0.5-3.1s-0.8-1.8-1.4-2.6c-0.6-0.7-1.4-1.3-2.2-1.8
		c-0.9-0.4-1.8-0.7-2.9-0.7c-1.1,0-2.1,0.2-3,0.7s-1.6,1.1-2.2,1.8c-0.6,0.8-1.1,1.6-1.4,2.6C-405.5,167.1-405.7,168.1-405.7,169.1z
		"/>
	<path class="st3" d="M-380.8,164.6v15.7h-3.5V158h2.8l12.7,16.1v-16h3.5v22.2h-2.9L-380.8,164.6z"/>
	<path class="st3" d="M-353.7,158h3.1l8.8,22.3h-3.7l-2.4-6.1h-8.6l-2.3,6.1h-3.7L-353.7,158z M-348.6,171.6l-3.6-9.6l-3.7,9.6
		H-348.6z"/>
	<path class="st3" d="M-324.9,161.1h-7.4v19.2h-3.5v-19.2h-7.4V158h18.4L-324.9,161.1L-324.9,161.1z"/>
	<path class="st3" d="M-306.7,177.1v3.1H-322v-22.3h15v3.1h-11.5v6.3h9.9v2.9h-9.9v6.8h11.8V177.1z"/>
</g>
<g class="st2">
	<path class="st3" d="M-407.3,206.7c-0.2-0.3-0.7-0.6-1.3-1s-1.4-0.8-2.3-1.2c-0.9-0.4-1.8-0.8-2.9-1.1c-1-0.3-2.1-0.6-3.3-0.7v10
		l1.5,0.3c2,0.5,3.8,1.1,5.5,1.7c1.6,0.6,3,1.4,4.2,2.3c1.1,0.9,2,2,2.6,3.3s0.9,2.9,0.9,4.8c0,2.1-0.4,3.9-1.1,5.5
		c-0.8,1.5-1.8,2.7-3.1,3.7s-2.8,1.7-4.5,2.2s-3.5,0.8-5.4,0.8v6.4h-3.5v-6.4c-2.7-0.2-5.4-0.7-7.9-1.7c-2.6-0.9-4.9-2.1-7-3.6
		l3.5-6.9c0.3,0.3,0.8,0.7,1.6,1.2s1.7,1,2.7,1.5c1.1,0.5,2.2,0.9,3.5,1.4c1.3,0.4,2.6,0.7,4,0.9v-10c-0.3-0.1-0.7-0.2-1-0.3
		c-0.3-0.1-0.7-0.2-1-0.3c-2-0.5-3.7-1.1-5.1-1.8c-1.5-0.6-2.7-1.4-3.6-2.3c-1-0.9-1.7-1.9-2.2-3s-0.7-2.5-0.7-4.1
		c0-1.9,0.3-3.7,1-5.2s1.6-2.8,2.8-3.9s2.6-1.9,4.2-2.6c1.6-0.6,3.4-1,5.2-1.2v-5.9h3.5v5.9c2.6,0.2,4.9,0.7,7.1,1.6
		c2.1,0.9,4,1.8,5.7,3L-407.3,206.7z M-424.9,207.3c0,1.3,0.5,2.3,1.4,3s2.3,1.3,4.2,1.8v-9.4C-423.1,202.9-424.9,204.5-424.9,207.3
		z M-410.8,226.2c0-1.3-0.5-2.3-1.6-3.1c-1.1-0.7-2.6-1.4-4.5-2v9.3C-412.9,230.3-410.8,228.9-410.8,226.2z"/>
	<path class="st3" d="M-397.8,237.1c0-1.7,0.1-3.3,0.4-4.7c0.3-1.4,0.7-2.7,1.4-3.9c0.7-1.2,1.6-2.3,2.8-3.4c1.2-1,2.7-2.1,4.5-3.1
		c1.6-0.9,3-1.6,4.2-2.2s2.2-1.2,3-1.8c0.8-0.5,1.4-1.1,1.9-1.7c0.4-0.6,0.6-1.2,0.6-1.9c0-1.2-0.5-2.2-1.4-3s-2.3-1.2-4-1.2
		c-0.9,0-1.8,0.1-2.6,0.4s-1.5,0.6-2.2,1s-1.3,0.9-1.9,1.4c-0.6,0.5-1.1,1.1-1.5,1.7l-5-5.7c0.5-0.5,1.2-1.1,2.1-1.8
		c0.9-0.6,2-1.2,3.3-1.8c1.3-0.6,2.7-1,4.2-1.4s3.2-0.6,4.9-0.6c2,0,3.7,0.2,5.3,0.7c1.5,0.5,2.9,1.2,3.9,2c1.1,0.9,1.9,1.9,2.4,3.1
		c0.6,1.2,0.8,2.5,0.8,4c0,1.4-0.3,2.6-0.8,3.6s-1.1,2-1.9,2.8c-0.8,0.8-1.6,1.5-2.5,2.1s-1.8,1.1-2.6,1.6c-0.7,0.4-1.5,0.8-2.4,1.3
		s-1.8,1.1-2.6,1.7c-0.9,0.6-1.7,1.2-2.4,1.9c-0.7,0.6-1.3,1.3-1.7,1.9h17.6v7H-397.8z"/>
	<path class="st3" d="M-350.4,218.6c1.9,0,3.7,0.3,5.4,1c1.7,0.6,3.1,1.5,4.3,2.7s2.1,2.6,2.8,4.2s1,3.4,1,5.4c0,2.1-0.4,4-1.1,5.7
		c-0.8,1.7-1.8,3.2-3.2,4.4c-1.4,1.2-3,2.2-4.8,2.8c-1.9,0.7-3.9,1-6,1c-3,0-5.7-0.6-8.1-1.9s-4.2-3-5.4-5.2l4.5-4.6
		c1.1,1.5,2.4,2.7,4.1,3.6c1.6,0.9,3.3,1.3,5.1,1.3c2.1,0,3.8-0.6,5.1-1.9s2-2.9,2-5c0-2-0.6-3.6-1.9-4.9c-1.3-1.2-2.9-1.9-4.8-1.9
		c-1.3,0-2.5,0.3-3.6,0.9s-2,1.4-2.6,2.4h-6.8c0-0.1,0.1-0.6,0.2-1.3c0.2-0.8,0.3-1.7,0.6-2.9c0.2-1.2,0.5-2.5,0.8-3.9
		c0.3-1.5,0.6-2.9,0.9-4.4c0.7-3.6,1.5-7.5,2.3-12h20.3v7.1H-354l-1.7,9.2c0.5-0.5,1.2-0.9,2.1-1.2
		C-352.9,218.8-351.7,218.6-350.4,218.6z"/>
	<path class="st3" d="M-302.3,220.1c0,2.6-0.4,4.9-1.1,7.1s-1.8,4-3.1,5.6s-2.9,2.8-4.8,3.7c-1.8,0.9-3.8,1.3-6,1.3s-4.2-0.4-6-1.3
		s-3.4-2.1-4.7-3.7s-2.4-3.4-3.1-5.6s-1.1-4.5-1.1-7.1s0.4-4.9,1.1-7.1s1.8-4,3.1-5.6s2.9-2.8,4.7-3.7c1.8-0.9,3.8-1.3,6-1.3
		c2.1,0,4.1,0.4,6,1.3c1.8,0.9,3.4,2.1,4.8,3.7c1.3,1.6,2.4,3.4,3.1,5.6S-302.3,217.6-302.3,220.1z M-310.1,220.1
		c0-1.5-0.2-3-0.5-4.3s-0.8-2.4-1.5-3.3c-0.6-0.9-1.4-1.6-2.3-2.1c-0.9-0.5-1.8-0.8-2.9-0.8c-1.1,0-2.1,0.3-2.9,0.8
		c-0.9,0.5-1.6,1.2-2.3,2.1c-0.6,0.9-1.1,2-1.5,3.3c-0.3,1.3-0.5,2.7-0.5,4.3s0.2,3,0.5,4.2c0.3,1.3,0.8,2.4,1.5,3.3
		c0.6,0.9,1.4,1.6,2.3,2.1c0.9,0.5,1.8,0.8,2.9,0.8c1,0,2-0.3,2.9-0.8s1.6-1.2,2.3-2.1c0.6-0.9,1.1-2,1.5-3.3
		C-310.3,223.1-310.1,221.7-310.1,220.1z"/>
</g>
</svg>
