<?xml version="1.0" encoding="utf-8"?>
<!-- Generator: Adobe Illustrator 19.0.0, SVG Export Plug-In . SVG Version: 6.00 Build 0)  -->
<svg version="1.1" id="Layer_1" xmlns="http://www.w3.org/2000/svg" xmlns:xlink="http://www.w3.org/1999/xlink" x="0px" y="0px"
	 viewBox="-484 88 229.8 225" style="enable-background:new -484 88 229.8 225;" xml:space="preserve">
<style type="text/css">
	.st0{fill:none;stroke:#3BB2F7;stroke-miterlimit:10;}
	.st1{fill:#3BB2F7;}
</style>
<circle id="XMLID_45_" class="st0" cx="-369.1" cy="200.5" r="98.4"/>
<path id="XMLID_44_" class="st1" d="M-429.2,180.2V158h7.9c1.8,0,3.4,0.3,4.7,0.9c1.3,0.6,2.5,1.4,3.4,2.4s1.6,2.2,2.1,3.5
	s0.7,2.8,0.7,4.3c0,1.7-0.3,3.2-0.8,4.6c-0.5,1.4-1.2,2.5-2.2,3.5c-0.9,1-2.1,1.7-3.4,2.3c-1.3,0.5-2.8,0.8-4.5,0.8h-7.9
	L-429.2,180.2L-429.2,180.2z M-414,169.1c0-1.2-0.2-2.2-0.5-3.2s-0.8-1.8-1.4-2.5s-1.4-1.2-2.3-1.6c-0.9-0.4-1.9-0.6-3.1-0.6h-4.4
	v16.1h4.4c1.2,0,2.2-0.2,3.1-0.6s1.7-1,2.3-1.7c0.6-0.7,1.1-1.6,1.4-2.6C-414.2,171.4-414,170.2-414,169.1z"/>
<path id="XMLID_49_" class="st1" d="M-397.5,180.4c-1.6,0-3-0.3-4.3-1c-1.3-0.6-2.4-1.5-3.4-2.5s-1.7-2.3-2.2-3.6s-0.8-2.7-0.8-4.2
	s0.3-2.9,0.8-4.3s1.3-2.6,2.2-3.6c1-1,2.1-1.9,3.4-2.5s2.7-0.9,4.3-0.9s3,0.3,4.3,1s2.4,1.5,3.4,2.6c0.9,1.1,1.7,2.3,2.2,3.6
	s0.8,2.7,0.8,4.1c0,1.5-0.3,2.9-0.8,4.3c-0.5,1.4-1.3,2.6-2.2,3.6c-1,1-2.1,1.9-3.4,2.5C-394.6,180.1-396,180.4-397.5,180.4z
	 M-404.6,169.1c0,1,0.2,2.1,0.5,3s0.8,1.8,1.4,2.6s1.4,1.4,2.2,1.8c0.8,0.4,1.9,0.7,2.9,0.7c1.1,0,2.1-0.2,3-0.7s1.6-1.1,2.2-1.9
	c0.6-0.8,1.1-1.6,1.4-2.6s0.5-1.9,0.5-2.9c0-1.1-0.2-2.1-0.5-3.1s-0.8-1.8-1.4-2.6c-0.6-0.7-1.4-1.3-2.2-1.8
	c-0.9-0.4-1.8-0.7-2.9-0.7s-2.1,0.2-3,0.7s-1.6,1.1-2.2,1.8c-0.6,0.8-1.1,1.6-1.4,2.6C-404.4,167.1-404.6,168.1-404.6,169.1z"/>
<path id="XMLID_52_" class="st1" d="M-379.7,164.6v15.7h-3.5V158h2.8l12.7,16.1v-16h3.5v22.2h-2.9L-379.7,164.6z"/>
<path id="XMLID_54_" class="st1" d="M-352.6,158h3.1l8.8,22.3h-3.7l-2.4-6.1h-8.6l-2.3,6.1h-3.7L-352.6,158z M-347.5,171.6l-3.6-9.6
	l-3.7,9.6H-347.5z"/>
<path id="XMLID_57_" class="st1" d="M-323.8,161.1h-7.4v19.2h-3.5v-19.2h-7.4V158h18.4v3.1H-323.8z"/>
<path id="XMLID_59_" class="st1" d="M-305.6,177.1v3.1h-15.3V158h15v3.1h-11.5v6.3h9.9v2.9h-9.9v6.8L-305.6,177.1L-305.6,177.1z"/>
<path id="XMLID_61_" class="st1" d="M-419,209.9c-0.2-0.2-0.6-0.5-1.2-0.9c-0.6-0.3-1.2-0.7-2-1.1c-0.8-0.4-1.6-0.7-2.6-1
	s-1.9-0.5-2.9-0.6v9l1.3,0.3c1.8,0.5,3.4,1,4.9,1.6s2.7,1.2,3.7,2.1c1,0.8,1.8,1.8,2.4,3s0.8,2.6,0.8,4.3c0,1.9-0.3,3.5-1,4.9
	c-0.7,1.3-1.6,2.5-2.8,3.3c-1.2,0.9-2.5,1.5-4,1.9s-3.2,0.7-4.9,0.8v5.7h-3.1v-5.8c-2.4-0.2-4.8-0.7-7.1-1.5
	c-2.3-0.8-4.4-1.9-6.3-3.2l3.2-6.2c0.3,0.3,0.8,0.6,1.4,1.1c0.7,0.4,1.5,0.9,2.4,1.3c1,0.4,2,0.8,3.2,1.2s2.4,0.6,3.6,0.8V222
	c-0.3-0.1-0.6-0.1-0.9-0.2c-0.3-0.1-0.6-0.2-0.9-0.3c-1.8-0.5-3.3-1-4.6-1.6c-1.3-0.6-2.4-1.2-3.2-2c-0.9-0.8-1.5-1.7-1.9-2.7
	s-0.6-2.2-0.6-3.7c0-1.7,0.3-3.3,0.9-4.6c0.6-1.4,1.4-2.5,2.5-3.5s2.3-1.7,3.8-2.3s3-0.9,4.7-1v-5.3h3.1v5.2
	c2.3,0.2,4.4,0.6,6.3,1.4c1.9,0.8,3.6,1.6,5.1,2.6L-419,209.9z M-434.8,210.5c0,1.2,0.4,2.1,1.2,2.7s2,1.2,3.7,1.6v-8.4
	C-433.1,206.6-434.8,207.9-434.8,210.5z M-422.2,227.3c0-1.2-0.5-2.1-1.5-2.8s-2.3-1.3-4-1.8v8.4C-424,231-422.2,229.8-422.2,227.3z
	"/>
<path id="XMLID_65_" class="st1" d="M-410.5,237.1c0-1.6,0.1-3,0.4-4.2c0.2-1.3,0.7-2.4,1.3-3.5c0.6-1.1,1.4-2.1,2.5-3
	s2.4-1.9,4-2.8c1.4-0.8,2.7-1.4,3.8-2s2-1.1,2.7-1.6s1.3-1,1.7-1.5s0.6-1.1,0.6-1.7c0-1-0.4-1.9-1.2-2.7c-0.8-0.7-2-1.1-3.6-1.1
	c-0.8,0-1.6,0.1-2.3,0.3c-0.7,0.2-1.3,0.5-1.9,0.9s-1.2,0.8-1.7,1.3s-1,1-1.4,1.5l-4.5-5.1c0.4-0.5,1.1-1,1.9-1.6s1.8-1.1,2.9-1.6
	s2.4-0.9,3.7-1.2c1.4-0.3,2.8-0.5,4.4-0.5c1.8,0,3.3,0.2,4.7,0.6s2.6,1,3.5,1.8c1,0.8,1.7,1.7,2.2,2.8s0.8,2.3,0.8,3.6
	c0,1.2-0.2,2.3-0.7,3.2c-0.4,0.9-1,1.8-1.7,2.5s-1.4,1.4-2.3,1.9c-0.8,0.5-1.6,1-2.4,1.4c-0.6,0.3-1.3,0.7-2.1,1.2
	c-0.8,0.5-1.6,0.9-2.4,1.5c-0.8,0.5-1.5,1.1-2.2,1.7c-0.7,0.6-1.2,1.1-1.5,1.7h15.7v6.3L-410.5,237.1L-410.5,237.1z"/>
<path id="XMLID_67_" class="st1" d="M-368.2,220.6c1.7,0,3.3,0.3,4.8,0.9c1.5,0.6,2.8,1.4,3.8,2.4c1.1,1,1.9,2.3,2.5,3.7
	c0.6,1.5,0.9,3.1,0.9,4.8c0,1.9-0.3,3.6-1,5.1s-1.6,2.8-2.8,3.9c-1.2,1.1-2.6,1.9-4.3,2.5c-1.7,0.6-3.5,0.9-5.4,0.9
	c-2.7,0-5.1-0.6-7.2-1.7c-2.1-1.1-3.7-2.7-4.9-4.7l4-4.2c1,1.3,2.2,2.4,3.6,3.2c1.5,0.8,3,1.2,4.5,1.2c1.9,0,3.4-0.6,4.6-1.7
	c1.2-1.1,1.8-2.6,1.8-4.5c0-1.8-0.6-3.3-1.7-4.4c-1.1-1.1-2.6-1.7-4.3-1.7c-1.1,0-2.2,0.3-3.2,0.8s-1.8,1.2-2.4,2.1h-6.1
	c0-0.1,0.1-0.5,0.2-1.2s0.3-1.5,0.5-2.6s0.4-2.2,0.7-3.5c0.2-1.3,0.5-2.6,0.8-4c0.6-3.2,1.3-6.7,2.1-10.7h18.2v6.3h-13.1l-1.5,8.3
	c0.4-0.4,1-0.8,1.8-1.1C-370.4,220.7-369.4,220.6-368.2,220.6z"/>
<path id="XMLID_69_" class="st1" d="M-325.2,221.9c0,2.3-0.3,4.4-1,6.3c-0.7,1.9-1.6,3.6-2.8,5c-1.2,1.4-2.6,2.5-4.3,3.3
	c-1.6,0.8-3.4,1.2-5.3,1.2s-3.7-0.4-5.3-1.2s-3-1.9-4.2-3.3c-1.2-1.4-2.1-3.1-2.8-5s-1-4-1-6.3s0.3-4.4,1-6.3s1.6-3.6,2.8-5
	c1.2-1.4,2.6-2.5,4.2-3.3s3.4-1.2,5.3-1.2s3.7,0.4,5.3,1.2c1.6,0.8,3.1,1.9,4.3,3.3c1.2,1.4,2.1,3.1,2.8,5
	C-325.5,217.5-325.2,219.6-325.2,221.9z M-332.2,221.9c0-1.4-0.2-2.7-0.5-3.8c-0.3-1.2-0.8-2.2-1.3-3c-0.6-0.8-1.2-1.5-2-1.9
	s-1.6-0.7-2.6-0.7s-1.8,0.2-2.6,0.7c-0.8,0.5-1.5,1.1-2,1.9c-0.6,0.8-1,1.8-1.3,3s-0.5,2.4-0.5,3.8c0,1.4,0.2,2.6,0.5,3.8
	s0.8,2.1,1.3,3c0.6,0.8,1.2,1.5,2,1.9c0.8,0.5,1.7,0.7,2.6,0.7s1.8-0.2,2.6-0.7c0.8-0.4,1.5-1.1,2-1.9c0.6-0.8,1-1.8,1.3-3
	S-332.2,223.3-332.2,221.9z"/>
<path id="XMLID_72_" class="st1" d="M-293.3,221.9c0,2.3-0.3,4.4-1,6.3c-0.7,1.9-1.6,3.6-2.8,5s-2.6,2.5-4.3,3.3
	c-1.6,0.8-3.4,1.2-5.3,1.2s-3.7-0.4-5.3-1.2c-1.6-0.8-3-1.9-4.2-3.3c-1.2-1.4-2.1-3.1-2.8-5c-0.7-1.9-1-4-1-6.3s0.3-4.4,1-6.3
	c0.7-1.9,1.6-3.6,2.8-5s2.6-2.5,4.2-3.3s3.4-1.2,5.3-1.2s3.7,0.4,5.3,1.2c1.6,0.8,3.1,1.9,4.3,3.3s2.1,3.1,2.8,5
	C-293.6,217.5-293.3,219.6-293.3,221.9z M-300.3,221.9c0-1.4-0.2-2.7-0.5-3.8c-0.3-1.2-0.8-2.2-1.3-3c-0.6-0.8-1.2-1.5-2-1.9
	s-1.6-0.7-2.6-0.7s-1.8,0.2-2.6,0.7s-1.5,1.1-2,1.9c-0.6,0.8-1,1.8-1.3,3s-0.5,2.4-0.5,3.8c0,1.4,0.2,2.6,0.5,3.8s0.8,2.1,1.3,3
	c0.6,0.8,1.2,1.5,2,1.9c0.8,0.5,1.7,0.7,2.6,0.7s1.8-0.2,2.6-0.7c0.8-0.4,1.5-1.1,2-1.9c0.6-0.8,1-1.8,1.3-3
	C-300.5,224.6-300.3,223.3-300.3,221.9z"/>
</svg>
