<?xml version="1.0" encoding="utf-8"?>
<!-- Generator: Adobe Illustrator 19.0.0, SVG Export Plug-In . SVG Version: 6.00 Build 0)  -->
<svg version="1.1" id="Layer_1" xmlns="http://www.w3.org/2000/svg" xmlns:xlink="http://www.w3.org/1999/xlink" x="0px" y="0px"
	 viewBox="-484 88 229.8 225" style="enable-background:new -484 88 229.8 225;" xml:space="preserve">
<style type="text/css">
	.st0{fill:none;stroke:#3BB2F7;stroke-miterlimit:10;}
	.st1{fill:#3BB2F7;}
</style>
<circle id="XMLID_45_" class="st0" cx="-369.1" cy="200.5" r="98.4"/>
<path id="XMLID_61_" class="st1" d="M-349,180.7c-0.4-0.4-1.2-1-2.4-1.8c-1.2-0.6-2.4-1.4-4-2.2c-1.6-0.8-3.2-1.4-5.2-2
	s-3.8-1-5.8-1.2v18.1l2.6,0.6c3.6,1,6.8,2,9.8,3.2s5.4,2.4,7.4,4.2c2,1.6,3.6,3.6,4.8,6c1.2,2.4,1.6,5.2,1.6,8.6c0,3.8-0.6,7-2,9.8
	c-1.4,2.6-3.2,5-5.6,6.6c-2.4,1.8-5,3-8,3.8c-3,0.8-6.4,1.4-9.8,1.6v11.4h-6.2v-11.6c-4.8-0.4-9.6-1.4-14.2-3
	c-4.6-1.6-8.8-3.8-12.6-6.4l6.4-12.4c0.6,0.6,1.6,1.2,2.8,2.2c1.4,0.8,3,1.8,4.8,2.6c2,0.8,4,1.6,6.4,2.4c2.4,0.8,4.8,1.2,7.2,1.6
	V205c-0.6-0.2-1.2-0.2-1.8-0.4c-0.6-0.2-1.2-0.4-1.8-0.6c-3.6-1-6.6-2-9.2-3.2c-2.6-1.2-4.8-2.4-6.4-4c-1.8-1.6-3-3.4-3.8-5.4
	c-0.8-2-1.2-4.4-1.2-7.4c0-3.4,0.6-6.6,1.8-9.2c1.2-2.8,2.8-5,5-7c2.2-2,4.6-3.4,7.6-4.6c3-1.2,6-1.8,9.4-2v-10.6h6.2v10.4
	c4.6,0.4,8.8,1.2,12.6,2.8c3.8,1.6,7.2,3.2,10.2,5.2L-349,180.7z M-380.7,181.9c0,2.4,0.8,4.2,2.4,5.4c1.6,1.2,4,2.4,7.4,3.2v-16.9
	C-377.3,174.1-380.7,176.7-380.7,181.9z M-355.5,215.6c0-2.4-1-4.2-3-5.6c-2-1.4-4.6-2.6-8-3.6v16.9
	C-359.1,223-355.5,220.6-355.5,215.6z"/>
</svg>
