<?xml version="1.0" encoding="utf-8"?>
<!-- Generator: Adobe Illustrator 19.0.0, SVG Export Plug-In . SVG Version: 6.00 Build 0)  -->
<svg version="1.1" id="Layer_1" xmlns="http://www.w3.org/2000/svg" xmlns:xlink="http://www.w3.org/1999/xlink" x="0px" y="0px"
	 viewBox="0 0 164.2 129.6" style="enable-background:new 0 0 164.2 129.6;" xml:space="preserve">
<style type="text/css">
	.st0{fill:#E2E2E2;}
</style>
<g id="XMLID_4_">
	<path id="XMLID_2_" class="st0" d="M131.7,18.8c0.4,0.4,0.5,1.1,0.1,1.6c-11.5,18.5-9.2,31.7-8.3,33.6c0.5,0.9,1.4,1.5,2.5,1.5
		c19.1,0,34.6,16.5,33.3,36.3c-1.1,17.5-15.6,31.6-32.8,31.9c-18.2,0.3-32.5-14.2-33.9-34.3c-3-42.6,20.9-70.6,29.4-79.1
		c0.4-0.4,1-0.4,1.4,0C125.1,11.9,129.1,16.1,131.7,18.8z"/>
	<path id="XMLID_1_" class="st0" d="M52.4,18.8c0.4,0.4,0.5,1.1,0.1,1.6C41.1,38.8,43.3,52,44.3,53.9c0.5,0.9,1.4,1.5,2.5,1.5
		c19.1,0,34.6,16.5,33.3,36.3c-1.1,17.5-15.6,31.6-32.8,31.9c-18.2,0.3-32.5-14.2-33.9-34.3c-3-42.6,20.9-70.6,29.4-79.1
		c0.4-0.4,1-0.4,1.4,0C45.8,11.9,49.8,16.1,52.4,18.8z"/>
</g>
</svg>
