<?xml version="1.0" encoding="utf-8"?>
<!-- Generator: Adobe Illustrator 19.0.0, SVG Export Plug-In . SVG Version: 6.00 Build 0)  -->
<svg version="1.1" id="Layer_1" xmlns="http://www.w3.org/2000/svg" xmlns:xlink="http://www.w3.org/1999/xlink" x="0px" y="0px"
	 viewBox="0 0 1073.8 120.8" style="enable-background:new 0 0 1073.8 120.8;" xml:space="preserve">
<style type="text/css">
	.st0{fill:#EAEAEA;}
	.st1{clip-path:url(#XMLID_33_);fill:#F9F9FA;}
</style>
<g id="XMLID_17_">
	<polygon id="XMLID_16_" class="st0" points="0,120.7 1070.6,9.7 1070.6,-1.2 0,40.7 	"/>
	<g id="XMLID_20_">
		<defs>
			<polygon id="XMLID_1_" points="3.2,120.8 1073.8,9.7 1073.8,-1.2 3.2,40.7 			"/>
		</defs>
		<clipPath id="XMLID_33_">
			<use xlink:href="#XMLID_1_"  style="overflow:visible;"/>
		</clipPath>
		<path id="XMLID_15_" class="st1" d="M153.7,36.4c-1.9,3.2-3.3,6.7-2.7,10.5c0.5,3.1,2.3,5.5,4.5,7.7c2.3,2.4,4.6,4.8,6.5,7.6
			c0.8,1.2,1.7,2.6,1.8,4.1c0.2,1.8-0.4,3.7-0.8,5.4c-0.6,3.3,2.2,6.2,5.6,4.7c3-1.4,6.3-1.7,9.6-0.9c3.7,1,6.3,4.2,9.6,6.1
			c6,3.5,13,3.3,18.6-0.7c1.7-1.3,1.6-4.1,0.3-5.6c-1.5-1.8-3.9-1.5-5.6-0.3c-5.8,4.2-11.2-2.1-15.8-5c-6.1-3.9-13.9-3.6-20.3-0.7
			c1.9,1.6,3.7,3.1,5.6,4.7c0.6-3.3,1.6-6.6,0.9-10c-0.7-3.5-2.9-6.5-5.1-9.3c-1.9-2.5-4.4-4.5-6.4-7c-1.9-2.4-1.1-4.7,0.4-7.1
			C163,36.3,156.3,32,153.7,36.4"/>
		<path id="XMLID_14_" class="st1" d="M622.2,49.4c10.1-6.7,20.2-13.5,30.3-20.2c-2.2-0.5-4.4-1-6.6-1.5c6,11.1,12.1,22.2,18.1,33.3
			c2.6,4.8,10.4,1.3,7.8-3.5c-6-11.1-12.1-22.2-18.1-33.3c-1.4-2.6-4.2-3.1-6.6-1.5C637,29.3,627,36.1,616.9,42.8
			C612.3,45.8,617.7,52.4,622.2,49.4"/>
		<path id="XMLID_13_" class="st1" d="M277.4,84.4c-3.7,23.3-23,45.3-48.3,41.8c-5.2-0.7-4-8.8,1.2-8.1c20.8,2.9,36-16.2,39-35
			C270.1,78,278.2,79.2,277.4,84.4"/>
		<path id="XMLID_12_" class="st1" d="M944.7,14c10.6,3,21,5.7,31.6,8.6c1.5,0.4,3.4,0.9,4.9,1.4c3.1,0.9,5-6.8,1.9-7.6
			c-10.6-3-21.1-5.7-31.7-8.7c-1.5-0.4-3-0.8-4.5-1.3c-3.1-0.9-5.5,6.6-2.4,7.5"/>
		<path id="XMLID_11_" class="st1" d="M79.9,118.9c-8.5-8.7-17-17.4-25.4-26.1c-0.1,2.2-0.2,4.5-0.3,6.7c9.8-8,19.6-15.9,29.4-23.9
			c4.2-3.4-0.6-10.4-4.9-7c-9.8,8-19.6,15.9-29.4,23.9c-2.3,1.9-2.3,4.7-0.3,6.7c8.5,8.7,17,17.4,25.4,26.1
			C78.2,129.3,83.7,122.8,79.9,118.9"/>
		<path id="XMLID_10_" class="st1" d="M322.8,48.6c-9-8.2-18-16.3-27-24.5c0,2.2,0.1,4.5,0.1,6.8c9.3-8.5,18.6-17.1,27.9-25.6
			c4-3.7-1.2-10.4-5.3-6.7c-9.3,8.5-18.6,17.1-27.9,25.6c-2.2,2-2,4.8,0.1,6.8c9,8.2,18,16.3,27,24.5
			C321.7,59.1,326.8,52.3,322.8,48.6"/>
		<path id="XMLID_9_" class="st1" d="M827.1,23.4c2.3-11.9,4.6-23.8,6.9-35.8c-1.9,1.2-3.8,2.4-5.7,3.6c12.1,3.5,24.2,7.1,36.4,10.6
			c5.2,1.5,8.2-6.4,3-8c-12.1-3.5-24.2-7.1-36.4-10.6c-2.8-0.8-5.2,0.8-5.7,3.6c-2.3,11.9-4.6,23.8-6.9,35.8
			C817.6,27.9,826.1,28.7,827.1,23.4"/>
		<path id="XMLID_8_" class="st1" d="M472.7,43c-12,2.1-23.9,4.2-35.9,6.3c1.8,1.4,3.6,2.7,5.4,4.1c-1-12.6-2.1-25.2-3.1-37.7
			c-0.4-5.4-9-5.4-8.5,0.1c1,12.6,2.1,25.2,3.1,37.7c0.2,2.9,2.6,4.6,5.4,4.1c12-2.1,23.9-4.2,35.9-6.3
			C480.4,50.3,478.1,42.1,472.7,43"/>
		<path id="XMLID_7_" class="st1" d="M229.7,7c0.8,11.5,1.8,22.6,2.6,34.1c0.1,1.6,1.3,14.1,1.4,15.8c0.2,3.3,8.1,2.7,7.8-0.7
			c-0.8-11.5-2.5-33.3-3.3-44.8c-0.1-1.6-0.2-3.3-0.3-4.9c-0.2-3.3-8.4-3.1-8.2,0.2"/>
		<path id="XMLID_6_" class="st1" d="M9.5,21.7c1.7,11.4,3.6,22.4,5.3,33.8c0.2,1.6,2.4,14,2.7,15.6c0.5,3.3,8.3,2,7.8-1.3
			c-1.7-11.4-5.2-33-6.9-44.4c-0.2-1.6-0.5-3.2-0.7-4.9c-0.5-3.3-8.7-2.4-8.2,0.9"/>
		<path id="XMLID_5_" class="st1" d="M722.4,4.5c6.8,6.2,13.5,12.2,20.2,18.4c1,0.9,8.5,7.5,9.5,8.4c2,1.8,6.6-3.8,4.6-5.6
			c-6.8-6.2-19.2-17.5-26-23.8c-1-0.9-2.1-1.8-3.2-2.7c-2-1.7-7.3,3.3-5.3,5.2"/>
		<path id="XMLID_4_" class="st1" d="M356.9,67.5c20.6-11.3,49.9-9.5,62.6,12.6c2.6,4.6-4.5,8.6-7.1,4
			c-10.4-18.2-34.8-18.6-51.5-9.5C356.3,77.1,352.3,70,356.9,67.5"/>
		<path id="XMLID_3_" class="st1" d="M88.5-7.4c21.1,10.3,36.6,35.3,25.8,58.5c-2.2,4.8-9.6,1.2-7.4-3.5c8.9-19-4.9-39.2-21.9-47.6
			C80.2-2.3,83.7-9.7,88.5-7.4"/>
		<path id="XMLID_2_" class="st1" d="M539.6,54.4c3.3,1.8,6.9,3,10.6,2.2c3-0.6,5.4-2.6,7.5-4.8c2.3-2.4,4.6-4.8,7.3-6.8
			c1.2-0.9,2.6-1.8,4-2c1.8-0.3,3.8,0.3,5.5,0.5c3.4,0.5,6.1-2.5,4.5-5.8c-1.5-3-2-6.3-1.3-9.5c0.8-3.8,4-6.5,5.7-9.8
			c3.3-6.2,2.8-13.1-1.5-18.6c-1.3-1.7-4.2-1.4-5.6,0c-1.7,1.6-1.4,3.9,0,5.6c4.4,5.6-1.6,11.3-4.3,16c-3.6,6.3-3,14.1,0.2,20.4
			c1.5-1.9,3-3.9,4.5-5.8c-3.3-0.5-6.7-1.3-10-0.4c-3.5,0.9-6.4,3.2-9.1,5.5c-2.4,2-4.3,4.6-6.7,6.7c-2.3,2-4.6,1.3-7.1,0
			C539.1,45.1,535.1,51.9,539.6,54.4"/>
	</g>
</g>
</svg>
