<?xml version="1.0" encoding="utf-8"?>
<!-- Generator: Adobe Illustrator 19.0.0, SVG Export Plug-In . SVG Version: 6.00 Build 0)  -->
<svg version="1.1" id="Layer_1" xmlns="http://www.w3.org/2000/svg" xmlns:xlink="http://www.w3.org/1999/xlink" x="0px" y="0px"
	 viewBox="0 0 164.2 129.6" style="enable-background:new 0 0 164.2 129.6;" xml:space="preserve">
<style type="text/css">
	.st0{fill:#E2E2E2;}
</style>
<g id="XMLID_17_">
	<path id="XMLID_2_" class="st0" d="M35.6,19.5c-0.4,0.4-0.4,1-0.1,1.5c11,17.5,8.9,29.9,7.9,31.7c-0.5,0.9-1.4,1.5-2.4,1.5
		c-18.4,0-33.3,15.6-32.1,34.2c1.1,16.5,15,29.8,31.6,30C58,118.6,71.8,105,73.1,86.1C76.1,45.9,53,19.5,44.9,11.5
		c-0.4-0.4-1-0.4-1.4,0C42,13.1,38.1,17,35.6,19.5z"/>
	<path id="XMLID_1_" class="st0" d="M111.9,19.5c-0.4,0.4-0.4,1-0.1,1.5c11,17.5,8.9,29.9,7.9,31.7c-0.5,0.9-1.4,1.5-2.4,1.5
		c-18.4,0-33.3,15.6-32.1,34.2c1.1,16.5,15,29.8,31.6,30c17.5,0.3,31.3-13.4,32.6-32.3c2.9-40.1-20.1-66.6-28.3-74.6
		c-0.4-0.4-1-0.4-1.4,0C118.3,13.1,114.4,17,111.9,19.5z"/>
</g>
</svg>
