<?xml version="1.0" encoding="utf-8"?>
<!-- Generator: Adobe Illustrator 19.0.0, SVG Export Plug-In . SVG Version: 6.00 Build 0)  -->
<svg version="1.1" id="Layer_1" xmlns="http://www.w3.org/2000/svg" xmlns:xlink="http://www.w3.org/1999/xlink" x="0px" y="0px"
	 viewBox="0 0 215.4 218.9" style="enable-background:new 0 0 215.4 218.9;" xml:space="preserve">
<style type="text/css">
	.st0{fill:#FFFFFF;}
</style>
<path id="XMLID_7_" class="st0" d="M107.1,6.9C50.9,6.9,5.3,52.5,5.3,108.7c0,56.2,45.6,101.8,101.8,101.8s101.8-45.6,101.8-101.8
	C208.9,52.5,163.3,6.9,107.1,6.9z M85.3,60.7c9.5,0,17.8,5.5,21.8,13.5c4-8,12.2-13.5,21.7-13.5c13.4,0,24.3,10.9,24.3,24.3
	c0,1.4-1.2,2.5-2.5,2.5c-1.4,0-2.5-1.2-2.5-2.5c0-10.6-8.6-19.2-19.2-19.2c-10.6,0-19.2,8.6-19.2,19.2c0,1.4-1.2,2.5-2.5,2.5
	c-1.4,0-2.5-1.2-2.5-2.5c0-10.6-8.6-19.2-19.2-19.2c-10.6,0-19.2,8.6-19.2,19.2c0,1.4-1.2,2.5-2.5,2.5c-1.4,0-2.5-1.2-2.5-2.5
	C61,71.6,71.9,60.7,85.3,60.7z M76.2,156.1c-0.5,0.4-1,0.6-1.6,0.6c-0.8,0-1.5-0.3-2-1l-39.9-50.2c-0.9-1.1-0.7-2.7,0.4-3.6
	c1.1-0.9,2.7-0.7,3.6,0.4l39.8,50.2C77.5,153.6,77.3,155.2,76.2,156.1z M107,156.7c-0.8,0-1.5-0.3-2-1l-40.3-51.1
	c-0.9-1.1-0.7-2.7,0.4-3.6c1.1-0.9,2.7-0.7,3.6,0.4L107,150l38.3-48.6c0.9-1.1,2.5-1.3,3.6-0.4c1.1,0.9,1.3,2.5,0.3,3.6l-40.3,51.1
	C108.5,156.4,107.7,156.7,107,156.7z M141.6,155.7c-0.5,0.6-1.3,0.9-2,0.9c-0.6,0-1.1-0.2-1.6-0.5c-1.1-0.9-1.3-2.5-0.4-3.6
	l39.8-50.2c0.9-1.1,2.5-1.3,3.6-0.4c1.1,0.9,1.3,2.5,0.4,3.6L141.6,155.7z"/>
</svg>
