<?xml version="1.0" encoding="utf-8"?>
<!-- Generator: Adobe Illustrator 19.0.0, SVG Export Plug-In . SVG Version: 6.00 Build 0)  -->
<svg version="1.1" id="Layer_3" xmlns="http://www.w3.org/2000/svg" xmlns:xlink="http://www.w3.org/1999/xlink" x="0px" y="0px"
	 viewBox="0 0 1136 199.5" style="enable-background:new 0 0 1136 199.5;" xml:space="preserve">
<style type="text/css">
	.st0{fill:#51AEE2;}
	.st1{fill:#F6891F;}
</style>
<path id="XMLID_30_" class="st0" d="M307.2,161.3c-0.1-0.1-0.3-0.2-0.5-0.1c-0.2,0.1-0.3,0.2-0.3,0.5v14.7c0,0.5-0.2,0.9-0.6,1.3
	c-0.4,0.4-0.8,0.6-1.3,0.6h-4.7c-0.5,0-0.9-0.2-1.3-0.6c-0.4-0.4-0.6-0.8-0.6-1.3V114c0-0.5,0.2-0.9,0.6-1.3
	c0.4-0.4,0.8-0.6,1.3-0.6h4.7c0.5,0,0.9,0.2,1.3,0.6c0.4,0.4,0.6,0.8,0.6,1.3v32.3c0,0.6,0.2,0.7,0.7,0.4l15.2-14
	c0.2-0.2,0.6-0.5,1-0.8c0.4-0.3,0.9-0.4,1.6-0.4h5c1,0,1.6,0.4,1.9,1.2c0.2,0.8,0.1,1.4-0.4,1.9l-19.1,18c-0.8,0.8-0.8,1.6,0,2.2
	l21.1,20.2c0.6,0.6,0.7,1.2,0.4,2c-0.4,0.7-1,1.1-1.9,1.1h-5.9c-0.7,0-1.3-0.2-1.7-0.5c-0.5-0.3-0.8-0.6-1.1-0.9L307.2,161.3z"/>
<path id="XMLID_66_" class="st0" d="M370.4,120.1c0,1-0.5,1.5-1.5,1.5h-6.3c-1,0-1.5-0.5-1.5-1.5v-6.4c0-0.4,0.1-0.7,0.4-1
	c0.3-0.3,0.6-0.5,1.1-0.5h6.3c0.4,0,0.8,0.2,1.1,0.5c0.3,0.3,0.4,0.7,0.4,1V120.1z M349.3,139.4c-0.5,0-0.9-0.2-1.3-0.6
	c-0.4-0.4-0.6-0.8-0.6-1.3v-4.2c0-0.5,0.2-0.9,0.6-1.3c0.4-0.4,0.8-0.6,1.3-0.6h18.9c0.5,0,0.9,0.2,1.3,0.6c0.4,0.4,0.6,0.8,0.6,1.3
	v35.9c0,0.6,0.3,0.9,0.9,0.9h11.9c0.5,0,0.9,0.2,1.3,0.6c0.4,0.4,0.6,0.8,0.6,1.3v4.2c0,0.5-0.2,0.9-0.6,1.3
	c-0.4,0.4-0.8,0.6-1.3,0.6h-34.5c-0.5,0-0.9-0.2-1.3-0.6c-0.4-0.4-0.6-0.8-0.6-1.3v-4.2c0-0.5,0.2-0.9,0.6-1.3
	c0.4-0.4,0.8-0.6,1.3-0.6h12.2c0.6,0,0.9-0.3,0.9-0.9v-28.9c0-0.6-0.3-0.9-0.9-0.9H349.3z"/>
<path id="XMLID_63_" class="st0" d="M414.1,170.7c3.2,0,5.8-0.9,7.7-2.8c1.9-1.9,2.9-4,3.1-6.5c0.1-1.9,0.2-4.1,0.2-6.5
	c0-2.4-0.1-4.6-0.2-6.5c-0.2-2.5-1.2-4.7-3.1-6.5c-1.9-1.9-4.4-2.8-7.7-2.8c-3.2,0-5.8,0.9-7.7,2.8c-1.9,1.9-2.9,4-3.1,6.5
	c-0.1,1.9-0.2,4.1-0.2,6.5c0,2.4,0.1,4.6,0.2,6.5c0.2,2.5,1.2,4.7,3.1,6.5C408.3,169.7,410.8,170.7,414.1,170.7 M413.1,179.1
	c-2.4,0-4.7-0.5-6.8-1.4c-2.1-0.9-3.9-2.2-5.5-3.8c-1.6-1.6-2.8-3.5-3.8-5.6c-1-2.2-1.5-4.5-1.7-6.9c-0.1-1.9-0.2-4-0.2-6.5
	c0-2.5,0.1-4.7,0.2-6.5c0.2-2.4,0.8-4.7,1.7-6.9c1-2.2,2.2-4.1,3.8-5.6c1.6-1.6,3.4-2.8,5.5-3.8c2.1-0.9,4.3-1.4,6.8-1.4
	c1.1,0,2,0.1,2.9,0.4c0.9,0.2,1.6,0.5,2.3,0.8c0.7,0.3,1.3,0.5,1.9,0.8c0.6,0.2,1.1,0.4,1.6,0.4c0.7,0,1.2-0.2,1.5-0.5
	c0.3-0.3,0.5-0.9,0.5-1.8V114c0-0.5,0.2-0.9,0.6-1.3c0.4-0.4,0.8-0.6,1.3-0.6h4.7c0.5,0,0.9,0.2,1.3,0.6c0.4,0.4,0.6,0.8,0.6,1.3
	v62.2c0,0.5-0.2,0.9-0.6,1.3c-0.4,0.4-0.8,0.6-1.3,0.6h-3.2c-0.4,0-0.9-0.2-1.3-0.7c-0.3-0.3-0.7-0.6-1-1c-0.4-0.3-0.8-0.5-1.3-0.5
	c-0.7,0-1.3,0.2-1.8,0.5c-0.5,0.3-1.1,0.7-1.8,1.1c-0.7,0.4-1.6,0.8-2.6,1.1C416.3,178.9,414.9,179.1,413.1,179.1"/>
<path id="XMLID_25_" class="st0" d="M448,162.9c0-0.5,0.2-0.9,0.6-1.3c0.4-0.4,0.8-0.6,1.3-0.6h4.7c0.5,0,0.9,0.2,1.3,0.6
	c0.4,0.4,0.6,0.8,0.6,1.3c0,1.7,0.3,3,1,4.1c0.7,1.1,1.5,1.9,2.5,2.5c1,0.6,2.1,1,3.3,1.2s2.3,0.3,3.4,0.3c1.2,0,2.5-0.1,3.7-0.3
	c1.2-0.2,2.3-0.5,3.2-1.1c0.9-0.5,1.7-1.2,2.2-2.1c0.6-0.9,0.8-2,0.8-3.5c0-1-0.3-1.9-0.8-2.6c-0.5-0.7-1.2-1.3-2.1-1.8
	c-0.9-0.5-2-0.9-3.2-1.2c-1.2-0.3-2.5-0.6-3.9-0.9c-1.9-0.4-3.9-0.8-5.9-1.4c-2-0.5-3.8-1.3-5.5-2.2c-1.6-1-3-2.2-4-3.8
	c-1-1.6-1.5-3.7-1.5-6.2c0-2.1,0.5-4,1.4-5.6c1-1.6,2.2-3.1,3.8-4.2c1.6-1.2,3.4-2.1,5.4-2.7c2-0.6,4.1-0.9,6.2-0.9
	c2.1,0,4.2,0.3,6.2,0.9c2,0.6,3.8,1.5,5.3,2.8c1.6,1.2,2.8,2.7,3.7,4.4c0.9,1.7,1.4,3.7,1.4,5.9c0,0.5-0.2,0.9-0.6,1.3
	c-0.4,0.4-0.8,0.6-1.3,0.6h-4.7c-0.5,0-0.9-0.2-1.3-0.6c-0.4-0.4-0.6-0.8-0.6-1.3c0-1.6-0.6-3-1.9-4.2c-1.3-1.2-3.4-1.8-6.3-1.8
	c-2.9,0-5,0.6-6.3,1.8c-1.3,1.2-1.9,2.5-1.9,3.8c0,1.7,0.8,2.9,2.4,3.5c1.6,0.7,3.5,1.2,5.8,1.7c1.9,0.4,4,0.8,6.2,1.3
	c2.2,0.5,4.2,1.2,6,2.2c1.8,1,3.3,2.4,4.5,4.2c1.2,1.8,1.8,4.2,1.8,7.1c0,2.5-0.5,4.7-1.5,6.5c-1,1.9-2.3,3.4-4.1,4.7
	c-1.7,1.2-3.7,2.2-5.9,2.8c-2.2,0.6-4.5,0.9-7,0.9c-2.4,0-4.7-0.3-6.9-0.9c-2.2-0.6-4.2-1.5-5.9-2.8c-1.7-1.3-3.1-3-4.2-5
	C448.5,168.3,448,165.8,448,162.9"/>
<path id="XMLID_24_" class="st1" d="M525.1,170.7c2.9,0,5.2-0.7,6.9-2.2c1.7-1.5,2.6-3.3,2.6-5.5c0-0.6,0.2-1,0.6-1.3
	c0.4-0.2,0.8-0.3,1.2-0.3h4.9c0.5,0,0.9,0.2,1.3,0.6c0.4,0.4,0.6,0.8,0.6,1.3c0,2.2-0.5,4.3-1.4,6.3c-0.9,2-2.1,3.6-3.7,5
	c-1.6,1.4-3.5,2.5-5.7,3.3c-2.2,0.8-4.6,1.2-7.2,1.2c-2.8,0-5.3-0.5-7.6-1.4c-2.2-0.9-4.2-2.2-5.7-3.8c-1.6-1.6-2.8-3.5-3.7-5.6
	c-0.9-2.2-1.4-4.5-1.6-6.9c-0.1-1.9-0.2-4-0.2-6.5c0-2.5,0.1-4.7,0.2-6.5c0.2-2.4,0.7-4.7,1.6-6.9c0.9-2.2,2.1-4.1,3.7-5.6
	c1.6-1.6,3.5-2.8,5.7-3.8c2.2-0.9,4.8-1.4,7.6-1.4c2.6,0,5,0.4,7.2,1.2c2.2,0.8,4.1,1.9,5.7,3.3c1.6,1.4,2.8,3.1,3.7,5
	c0.9,2,1.4,4.1,1.4,6.3c0,0.5-0.1,0.9-0.4,1.3c-0.3,0.4-0.7,0.6-1.2,0.6h-5c-0.4,0-0.8-0.1-1.2-0.4c-0.4-0.3-0.6-0.6-0.6-1.1
	c0-2.2-0.9-4-2.6-5.6c-1.7-1.5-4.1-2.3-7-2.3c-3.2,0-5.7,0.9-7.4,2.8c-1.7,1.9-2.7,4-2.8,6.5c-0.1,1.9-0.2,4.1-0.2,6.5
	c0,2.4,0.1,4.6,0.2,6.5c0.2,2.5,1.1,4.7,2.8,6.5C519.4,169.7,521.8,170.7,525.1,170.7"/>
<path id="XMLID_58_" class="st1" d="M575.9,170.7c3.2,0,5.8-0.9,7.6-2.8c1.9-1.9,2.9-4,3.1-6.5c0.1-1.9,0.2-4.1,0.2-6.5
	c0-2.4-0.1-4.6-0.2-6.5c-0.2-2.5-1.2-4.7-3.1-6.5c-1.9-1.9-4.4-2.8-7.6-2.8c-3.2,0-5.8,0.9-7.7,2.8c-1.9,1.9-2.9,4-3.1,6.5
	c-0.1,1.9-0.2,4.1-0.2,6.5c0,2.4,0.1,4.6,0.2,6.5c0.2,2.5,1.2,4.7,3.1,6.5C570.1,169.7,572.7,170.7,575.9,170.7 M575.9,130.6
	c2.8,0,5.3,0.5,7.6,1.4c2.3,0.9,4.2,2.2,5.9,3.8c1.6,1.6,3,3.5,3.9,5.6c1,2.2,1.5,4.5,1.7,6.9c0.1,1.9,0.2,4,0.2,6.5
	c0,2.5-0.1,4.7-0.2,6.5c-0.2,2.4-0.8,4.7-1.7,6.9c-1,2.2-2.3,4.1-3.9,5.6c-1.6,1.6-3.6,2.8-5.9,3.8c-2.3,0.9-4.8,1.4-7.6,1.4
	c-2.8,0-5.3-0.5-7.6-1.4c-2.3-0.9-4.2-2.2-5.9-3.8c-1.6-1.6-3-3.5-3.9-5.6c-1-2.2-1.5-4.5-1.7-6.9c-0.1-1.9-0.2-4-0.2-6.5
	c0-2.5,0.1-4.7,0.2-6.5c0.2-2.4,0.8-4.7,1.7-6.9c1-2.2,2.3-4.1,3.9-5.6c1.6-1.6,3.6-2.8,5.9-3.8C570.6,131,573.1,130.6,575.9,130.6"
	/>
<path id="XMLID_55_" class="st1" d="M626.2,170.7c3.2,0,5.8-0.9,7.7-2.8c1.9-1.9,2.9-4,3.1-6.5c0.1-1.9,0.2-4.1,0.2-6.5
	c0-2.4-0.1-4.6-0.2-6.5c-0.2-2.5-1.2-4.7-3.1-6.5c-1.9-1.9-4.4-2.8-7.7-2.8c-3.2,0-5.8,0.9-7.7,2.8c-1.9,1.9-2.9,4-3.1,6.5
	c-0.1,1.9-0.2,4.1-0.2,6.5c0,2.4,0.1,4.6,0.2,6.5c0.2,2.5,1.2,4.7,3.1,6.5C620.4,169.7,623,170.7,626.2,170.7 M625.3,179.1
	c-2.4,0-4.7-0.5-6.8-1.4c-2.1-0.9-3.9-2.2-5.5-3.8c-1.6-1.6-2.8-3.5-3.8-5.6c-1-2.2-1.5-4.5-1.7-6.9c-0.1-1.9-0.2-4-0.2-6.5
	c0-2.5,0.1-4.7,0.2-6.5c0.2-2.4,0.8-4.7,1.7-6.9c1-2.2,2.2-4.1,3.8-5.6c1.6-1.6,3.4-2.8,5.5-3.8c2.1-0.9,4.3-1.4,6.8-1.4
	c1.1,0,2,0.1,2.9,0.4c0.9,0.3,1.6,0.5,2.3,0.8c0.7,0.3,1.3,0.5,1.9,0.8c0.6,0.2,1.1,0.4,1.6,0.4c0.7,0,1.2-0.2,1.5-0.5
	c0.3-0.3,0.5-0.9,0.5-1.8V114c0-0.5,0.2-0.9,0.6-1.3c0.4-0.4,0.8-0.6,1.3-0.6h4.7c0.5,0,0.9,0.2,1.3,0.6c0.4,0.4,0.6,0.8,0.6,1.3
	v62.2c0,0.5-0.2,0.9-0.6,1.3c-0.4,0.4-0.8,0.6-1.3,0.6h-3.2c-0.4,0-0.9-0.2-1.3-0.7c-0.3-0.3-0.7-0.6-1-1c-0.4-0.3-0.8-0.5-1.3-0.5
	c-0.7,0-1.3,0.2-1.8,0.5c-0.5,0.3-1.1,0.7-1.8,1.1c-0.7,0.4-1.6,0.8-2.6,1.1C628.4,178.9,627,179.1,625.3,179.1"/>
<path id="XMLID_52_" class="st1" d="M668.3,149.1c0,0.6,0.3,0.9,0.9,0.9h19.4c0.6,0,0.9-0.3,0.9-0.9c0-3.2-1-5.7-3.1-7.5
	c-2.1-1.8-4.5-2.7-7.5-2.7c-3.2,0-5.8,1-7.8,2.9C669.3,143.9,668.3,146.3,668.3,149.1 M668.1,158.5c0,4.3,1,7.4,3,9.3
	c2,1.9,4.6,2.9,7.8,2.9c2.4,0,4.5-0.5,6.2-1.6c1.7-1.1,2.8-2.5,3.4-4.2c0.2-0.6,0.5-1,0.9-1.3c0.4-0.2,0.8-0.3,1.3-0.3h4.8
	c0.5,0,0.9,0.1,1.3,0.4c0.3,0.3,0.4,0.8,0.3,1.4c-0.3,2.1-1,3.9-2,5.6c-1,1.7-2.3,3.2-3.9,4.4c-1.6,1.2-3.4,2.2-5.5,2.9
	c-2.1,0.7-4.3,1-6.8,1c-2.8,0-5.3-0.5-7.6-1.4c-2.3-0.9-4.2-2.2-5.9-3.8c-1.7-1.6-3-3.5-3.9-5.6c-1-2.2-1.5-4.5-1.7-6.9
	c-0.1-1.9-0.2-4-0.2-6.5c0-2.5,0.1-4.7,0.2-6.5c0.2-2.4,0.8-4.7,1.7-6.9c1-2.2,2.3-4.1,3.9-5.6c1.6-1.6,3.6-2.8,5.9-3.8
	c2.3-0.9,4.8-1.4,7.6-1.4c5.7,0,10.2,1.6,13.6,4.9c3.4,3.3,5.1,7.9,5.1,13.7v6.4c0,0.5-0.2,0.9-0.6,1.3c-0.4,0.4-0.8,0.6-1.3,0.6
	H669C668.4,157.5,668.1,157.8,668.1,158.5"/>
<path id="XMLID_49_" class="st0" d="M738.5,119.2c0,1-0.5,1.5-1.5,1.5h-6.3c-1,0-1.5-0.5-1.5-1.5v-6.4c0-0.4,0.1-0.7,0.4-1
	c0.3-0.3,0.6-0.5,1.1-0.5h6.3c0.4,0,0.8,0.2,1.1,0.5c0.3,0.3,0.4,0.7,0.4,1V119.2z M738.2,181.6c0,2.1-0.4,4-1.2,5.8
	c-0.8,1.8-1.9,3.5-3.2,4.9c-1.4,1.4-3,2.5-4.8,3.3c-1.8,0.8-3.7,1.2-5.8,1.2c-2.1,0-4-0.4-5.8-1.2c-1.8-0.8-3.4-1.9-4.8-3.2
	c-1.4-1.4-2.4-3-3.2-4.8c-0.8-1.8-1.2-3.7-1.2-5.8c0-0.5,0.2-0.9,0.6-1.3c0.4-0.4,0.8-0.6,1.3-0.6h4.7c0.5,0,0.9,0.2,1.3,0.6
	c0.4,0.4,0.6,0.8,0.6,1.3c0,1.7,0.5,3.2,1.6,4.5c1.1,1.3,2.7,2,4.9,2c2.2,0,3.8-0.7,4.8-2.1c1-1.4,1.5-3,1.5-4.7v-42.2
	c0-0.6-0.3-0.9-0.9-0.9H715c-0.5,0-0.9-0.2-1.3-0.6c-0.4-0.4-0.6-0.8-0.6-1.3v-4.2c0-0.5,0.2-0.9,0.6-1.3c0.4-0.4,0.8-0.6,1.3-0.6
	h21.3c0.5,0,0.9,0.2,1.3,0.6c0.4,0.4,0.6,0.8,0.6,1.3V181.6z"/>
<path id="XMLID_46_" class="st0" d="M766.3,148.2c0,0.6,0.3,0.9,0.9,0.9h19.4c0.6,0,0.9-0.3,0.9-0.9c0-3.2-1-5.7-3.1-7.5
	c-2.1-1.8-4.5-2.7-7.5-2.7c-3.2,0-5.8,1-7.8,2.9C767.3,142.9,766.3,145.4,766.3,148.2 M766.1,157.6c0,4.3,1,7.4,3,9.3
	c2,1.9,4.6,2.9,7.8,2.9c2.4,0,4.5-0.5,6.2-1.6c1.7-1.1,2.8-2.5,3.4-4.2c0.2-0.6,0.5-1,0.9-1.3c0.4-0.2,0.8-0.3,1.3-0.3h4.8
	c0.5,0,0.9,0.1,1.3,0.4c0.3,0.3,0.4,0.8,0.3,1.4c-0.3,2.1-1,3.9-2,5.6c-1,1.7-2.3,3.2-3.9,4.4c-1.6,1.2-3.4,2.2-5.5,2.9
	c-2.1,0.7-4.3,1-6.8,1c-2.8,0-5.3-0.5-7.6-1.4c-2.3-0.9-4.2-2.2-5.9-3.8c-1.7-1.6-3-3.5-3.9-5.6c-1-2.2-1.5-4.5-1.7-6.9
	c-0.1-1.9-0.2-4-0.2-6.5c0-2.5,0.1-4.7,0.2-6.5c0.2-2.4,0.8-4.7,1.7-6.9c1-2.2,2.3-4.1,3.9-5.6c1.6-1.6,3.6-2.8,5.9-3.8
	c2.3-0.9,4.8-1.4,7.6-1.4c5.7,0,10.2,1.6,13.6,4.9c3.4,3.3,5.1,7.9,5.1,13.7v6.4c0,0.5-0.2,0.9-0.6,1.3c-0.4,0.4-0.8,0.6-1.3,0.6
	h-26.7C766.5,156.6,766.1,156.9,766.1,157.6"/>
<path id="XMLID_13_" class="st0" d="M837,175.1c-0.7,0-1.3,0.2-1.7,0.5c-0.5,0.3-1,0.7-1.7,1.1c-0.7,0.4-1.5,0.8-2.5,1.1
	c-1,0.3-2.4,0.5-4.1,0.5c-2.6,0-5-0.4-7.2-1.3c-2.2-0.9-4-2.1-5.6-3.7c-1.6-1.6-2.8-3.5-3.6-5.6c-0.9-2.2-1.3-4.5-1.3-7.1v-28
	c0-0.5,0.2-0.9,0.6-1.3c0.4-0.4,0.8-0.6,1.3-0.6h4.7c0.5,0,0.9,0.2,1.3,0.6c0.4,0.4,0.6,0.8,0.6,1.3v28c0,2.7,0.9,5,2.7,6.7
	c1.8,1.7,4.3,2.6,7.6,2.6c2.9,0,5.4-0.8,7.3-2.4c2-1.6,2.9-3.7,2.9-6.5v-28.5c0-0.5,0.2-0.9,0.6-1.3c0.4-0.4,0.8-0.6,1.3-0.6h4.7
	c0.5,0,0.9,0.2,1.3,0.6c0.4,0.4,0.6,0.8,0.6,1.3v42.9c0,0.5-0.2,0.9-0.6,1.3c-0.4,0.4-0.8,0.6-1.3,0.6h-4.1c-0.4,0-0.9-0.2-1.3-0.7
	c-0.3-0.3-0.7-0.6-1-1C837.9,175.3,837.5,175.1,837,175.1"/>
<path id="XMLID_12_" class="st0" d="M870.6,132.7c0.7,0,1.3-0.2,1.8-0.5c0.5-0.3,1.1-0.7,1.8-1.1c0.7-0.4,1.5-0.8,2.5-1.1
	c1-0.3,2.3-0.5,3.9-0.5c2.4,0,4.7,0.4,6.9,1.3c2.2,0.9,4.1,2.1,5.6,3.7c1.6,1.6,2.8,3.5,3.8,5.6c0.9,2.2,1.4,4.5,1.4,7.1v28
	c0,0.5-0.2,0.9-0.6,1.3c-0.4,0.4-0.8,0.6-1.3,0.6h-4.7c-0.5,0-0.9-0.2-1.3-0.6c-0.4-0.4-0.6-0.8-0.6-1.3v-28c0-2.7-1-5-2.9-6.7
	c-2-1.7-4.4-2.6-7.3-2.6c-2.9,0-5.4,0.8-7.3,2.4c-2,1.6-2.9,3.7-2.9,6.5v28.5c0,0.5-0.2,0.9-0.6,1.3c-0.4,0.4-0.8,0.6-1.3,0.6h-4.7
	c-0.5,0-0.9-0.2-1.3-0.6c-0.4-0.4-0.6-0.8-0.6-1.3v-42.9c0-0.5,0.2-0.9,0.6-1.3c0.4-0.4,0.8-0.6,1.3-0.6h4.1c0.4,0,0.9,0.2,1.3,0.7
	c0.3,0.3,0.7,0.6,1,1C869.7,132.6,870.2,132.7,870.6,132.7"/>
<path id="XMLID_41_" class="st0" d="M920.3,148.2c0,0.6,0.3,0.9,0.9,0.9h19.4c0.6,0,0.9-0.3,0.9-0.9c0-3.2-1-5.7-3.1-7.5
	c-2.1-1.8-4.5-2.7-7.5-2.7c-3.2,0-5.8,1-7.8,2.9C921.3,142.9,920.3,145.4,920.3,148.2 M920.1,157.6c0,4.3,1,7.4,3,9.3
	c2,1.9,4.6,2.9,7.8,2.9c2.4,0,4.5-0.5,6.2-1.6c1.7-1.1,2.8-2.5,3.4-4.2c0.2-0.6,0.5-1,0.9-1.3c0.4-0.2,0.8-0.3,1.3-0.3h4.8
	c0.5,0,0.9,0.1,1.3,0.4c0.3,0.3,0.4,0.8,0.3,1.4c-0.3,2.1-1,3.9-2,5.6c-1,1.7-2.3,3.2-3.9,4.4c-1.6,1.2-3.4,2.2-5.5,2.9
	c-2.1,0.7-4.3,1-6.8,1c-2.8,0-5.3-0.5-7.6-1.4c-2.3-0.9-4.2-2.2-5.9-3.8c-1.7-1.6-3-3.5-3.9-5.6c-1-2.2-1.5-4.5-1.7-6.9
	c-0.1-1.9-0.2-4-0.2-6.5c0-2.5,0.1-4.7,0.2-6.5c0.2-2.4,0.8-4.7,1.7-6.9c1-2.2,2.3-4.1,3.9-5.6c1.6-1.6,3.6-2.8,5.9-3.8
	c2.3-0.9,4.8-1.4,7.6-1.4c5.7,0,10.2,1.6,13.6,4.9c3.4,3.3,5.1,7.9,5.1,13.7v6.4c0,0.5-0.2,0.9-0.6,1.3c-0.4,0.4-0.8,0.6-1.3,0.6
	H921C920.4,156.6,920.1,156.9,920.1,157.6"/>
<path id="XMLID_9_" class="st0" d="M963.4,162c0-0.5,0.2-0.9,0.6-1.3c0.4-0.4,0.8-0.6,1.3-0.6h4.7c0.5,0,0.9,0.2,1.3,0.6
	c0.4,0.4,0.6,0.8,0.6,1.3c0,1.7,0.3,3,1,4.1c0.7,1.1,1.5,1.9,2.5,2.5c1,0.6,2.1,1,3.3,1.2c1.2,0.2,2.3,0.3,3.4,0.3
	c1.2,0,2.5-0.1,3.7-0.3c1.2-0.2,2.3-0.5,3.2-1.1c0.9-0.5,1.7-1.2,2.2-2.1c0.6-0.9,0.8-2,0.8-3.5c0-1-0.3-1.9-0.8-2.6
	c-0.5-0.7-1.2-1.3-2.1-1.8c-0.9-0.5-2-0.9-3.2-1.2c-1.2-0.3-2.5-0.6-3.9-0.9c-1.9-0.4-3.9-0.8-5.9-1.4c-2-0.5-3.8-1.3-5.5-2.2
	c-1.6-1-3-2.2-4-3.8c-1-1.6-1.5-3.7-1.5-6.2c0-2.1,0.5-4,1.4-5.6c1-1.6,2.2-3.1,3.8-4.2c1.6-1.2,3.4-2.1,5.4-2.7
	c2-0.6,4.1-0.9,6.2-0.9c2.1,0,4.2,0.3,6.2,0.9c2,0.6,3.8,1.5,5.3,2.8c1.6,1.2,2.8,2.7,3.7,4.4c0.9,1.7,1.4,3.7,1.4,5.9
	c0,0.5-0.2,0.9-0.6,1.3c-0.4,0.4-0.8,0.6-1.3,0.6h-4.7c-0.5,0-0.9-0.2-1.3-0.6c-0.4-0.4-0.6-0.8-0.6-1.3c0-1.6-0.6-3-1.9-4.2
	c-1.3-1.2-3.4-1.8-6.3-1.8c-2.9,0-5,0.6-6.3,1.8c-1.3,1.2-1.9,2.5-1.9,3.8c0,1.7,0.8,2.9,2.4,3.5c1.6,0.7,3.5,1.2,5.8,1.7
	c1.9,0.4,4,0.8,6.2,1.3c2.2,0.5,4.2,1.2,6,2.2c1.8,1,3.3,2.4,4.5,4.2c1.2,1.8,1.8,4.2,1.8,7.1c0,2.5-0.5,4.7-1.5,6.5
	c-1,1.9-2.3,3.4-4.1,4.7c-1.7,1.2-3.7,2.2-5.9,2.8c-2.2,0.6-4.5,0.9-7,0.9c-2.4,0-4.7-0.3-6.9-0.9c-2.2-0.6-4.2-1.5-5.9-2.8
	c-1.7-1.3-3.1-3-4.2-5C963.9,167.3,963.4,164.9,963.4,162"/>
<path id="XMLID_8_" class="st0" d="M1014.7,162c0-0.5,0.2-0.9,0.6-1.3c0.4-0.4,0.8-0.6,1.3-0.6h4.7c0.5,0,0.9,0.2,1.3,0.6
	c0.4,0.4,0.6,0.8,0.6,1.3c0,1.7,0.3,3,1,4.1c0.7,1.1,1.5,1.9,2.5,2.5c1,0.6,2.1,1,3.3,1.2c1.2,0.2,2.3,0.3,3.4,0.3
	c1.2,0,2.5-0.1,3.7-0.3c1.2-0.2,2.3-0.5,3.2-1.1c0.9-0.5,1.7-1.2,2.2-2.1c0.6-0.9,0.8-2,0.8-3.5c0-1-0.3-1.9-0.8-2.6
	c-0.5-0.7-1.2-1.3-2.1-1.8c-0.9-0.5-2-0.9-3.2-1.2c-1.2-0.3-2.5-0.6-3.9-0.9c-1.9-0.4-3.9-0.8-5.9-1.4c-2-0.5-3.8-1.3-5.5-2.2
	c-1.6-1-3-2.2-4-3.8c-1-1.6-1.5-3.7-1.5-6.2c0-2.1,0.5-4,1.4-5.6c1-1.6,2.2-3.1,3.8-4.2c1.6-1.2,3.4-2.1,5.4-2.7
	c2-0.6,4.1-0.9,6.2-0.9c2.1,0,4.2,0.3,6.2,0.9c2,0.6,3.8,1.5,5.3,2.8c1.6,1.2,2.8,2.7,3.7,4.4c0.9,1.7,1.4,3.7,1.4,5.9
	c0,0.5-0.2,0.9-0.6,1.3c-0.4,0.4-0.8,0.6-1.3,0.6h-4.7c-0.5,0-0.9-0.2-1.3-0.6c-0.4-0.4-0.6-0.8-0.6-1.3c0-1.6-0.6-3-1.9-4.2
	c-1.3-1.2-3.4-1.8-6.3-1.8c-2.9,0-5,0.6-6.3,1.8c-1.3,1.2-1.9,2.5-1.9,3.8c0,1.7,0.8,2.9,2.4,3.5c1.6,0.7,3.5,1.2,5.8,1.7
	c1.9,0.4,4,0.8,6.2,1.3c2.2,0.5,4.2,1.2,6,2.2c1.8,1,3.3,2.4,4.5,4.2c1.2,1.8,1.8,4.2,1.8,7.1c0,2.5-0.5,4.7-1.5,6.5
	c-1,1.9-2.3,3.4-4.1,4.7c-1.7,1.2-3.7,2.2-5.9,2.8c-2.2,0.6-4.5,0.9-7,0.9c-2.4,0-4.7-0.3-6.9-0.9c-2.2-0.6-4.2-1.5-5.9-2.8
	c-1.7-1.3-3.1-3-4.2-5C1015.2,167.3,1014.7,164.9,1014.7,162"/>
<path id="XMLID_36_" class="st0" d="M1074.2,148.2c0,0.6,0.3,0.9,0.9,0.9h19.4c0.6,0,0.9-0.3,0.9-0.9c0-3.2-1-5.7-3.1-7.5
	c-2.1-1.8-4.5-2.7-7.5-2.7c-3.2,0-5.8,1-7.8,2.9C1075.2,142.9,1074.2,145.4,1074.2,148.2 M1074.1,157.6c0,4.3,1,7.4,3,9.3
	c2,1.9,4.6,2.9,7.8,2.9c2.4,0,4.5-0.5,6.2-1.6c1.7-1.1,2.8-2.5,3.4-4.2c0.2-0.6,0.5-1,0.9-1.3c0.4-0.2,0.8-0.3,1.3-0.3h4.8
	c0.5,0,0.9,0.1,1.3,0.4c0.3,0.3,0.4,0.8,0.3,1.4c-0.3,2.1-1,3.9-2,5.6c-1,1.7-2.3,3.2-3.9,4.4c-1.6,1.2-3.4,2.2-5.5,2.9
	c-2.1,0.7-4.3,1-6.8,1c-2.8,0-5.3-0.5-7.6-1.4c-2.3-0.9-4.2-2.2-5.9-3.8c-1.7-1.6-3-3.5-3.9-5.6c-1-2.2-1.5-4.5-1.7-6.9
	c-0.1-1.9-0.2-4-0.2-6.5c0-2.5,0.1-4.7,0.2-6.5c0.2-2.4,0.8-4.7,1.7-6.9c1-2.2,2.3-4.1,3.9-5.6c1.6-1.6,3.6-2.8,5.9-3.8
	c2.3-0.9,4.8-1.4,7.6-1.4c5.7,0,10.2,1.6,13.6,4.9c3.4,3.3,5.1,7.9,5.1,13.7v6.4c0,0.5-0.2,0.9-0.6,1.3c-0.4,0.4-0.8,0.6-1.3,0.6
	H1075C1074.4,156.6,1074.1,156.9,1074.1,157.6"/>
<path id="XMLID_5_" class="st0" d="M203.5,182c-1,0-1.9-0.3-2.7-0.9c-1.9-1.5-2.2-4.3-0.7-6.2l68.8-86.8c1.5-1.9,4.3-2.2,6.2-0.7
	c1.9,1.5,2.2,4.3,0.7,6.2L207,180.4C206.1,181.5,204.8,182,203.5,182"/>
<path id="XMLID_4_" class="st1" d="M185,16.2c-16.5,0-30.7,9.5-37.6,23.3c-6.9-13.8-21.2-23.3-37.6-23.3c-23.2,0-42,18.8-42,42
	c0,2.4,2,4.4,4.4,4.4c2.4,0,4.4-2,4.4-4.4c0-18.3,14.9-33.2,33.2-33.2S143,39.9,143,58.2c0,2.4,2,4.4,4.4,4.4s4.4-2,4.4-4.4
	c0-18.3,14.9-33.2,33.2-33.2c18.3,0,33.2,14.9,33.2,33.2c0,2.4,2,4.4,4.4,4.4c2.4,0,4.4-2,4.4-4.4C227,35.1,208.2,16.2,185,16.2"/>
<path id="XMLID_3_" class="st1" d="M219.7,85.8c-1.9-1.5-4.7-1.2-6.2,0.7l-66.2,84l-66.2-84c-1.5-1.9-4.3-2.2-6.2-0.7
	c-1.9,1.5-2.2,4.3-0.7,6.2l69.6,88.4c0.8,1.1,2.1,1.7,3.4,1.7c1.3,0,2.6-0.6,3.4-1.7L220.5,92C222,90.1,221.6,87.3,219.7,85.8"/>
<path id="XMLID_2_" class="st0" d="M91.3,182c-1.3,0-2.6-0.6-3.4-1.7L19,93.6c-1.5-1.9-1.2-4.7,0.7-6.2c1.9-1.5,4.7-1.2,6.2,0.7
	l68.8,86.8c1.5,1.9,1.2,4.7-0.7,6.2C93.2,181.7,92.2,182,91.3,182"/>
</svg>
