<svg xmlns="http://www.w3.org/2000/svg" width="289" height="180" viewBox="0 0 289 180">
  <g fill="none">
    <path fill="#51AEE2" d="M206.8,179.2 C205.7,179.2 204.7,178.9 203.8,178.2 C201.7,176.6 201.3,173.6 203,171.6 L279.4,78.1 C281.1,76.1 284.1,75.7 286.2,77.3 C288.3,78.9 288.7,81.9 287,83.9 L210.6,177.4 C209.7,178.6 208.2,179.2 206.8,179.2"/>
    <path fill="#F6891F" d="M186.2.6C167.9.6 152.1 10.9 144.4 25.7 136.8 10.8 120.9.6 102.6.6 76.9.6 56 20.9 56 45.8 56 48.4 58.2 50.5 60.9 50.5 63.6 50.5 65.8 48.4 65.8 45.8 65.8 26.1 82.4 10 102.7 10 123 10 139.6 26.1 139.6 45.8 139.6 48.4 141.8 50.5 144.5 50.5 147.2 50.5 149.4 48.4 149.4 45.8 149.4 26.1 166 10 186.3 10 206.6 10 223.2 26.1 223.2 45.8 223.2 48.4 225.4 50.5 228.1 50.5 230.8 50.5 233 48.4 233 45.8 232.9 20.9 212 .6 186.2.6M224.8 75.6C222.7 74 219.6 74.3 218 76.4L144.5 166.9 71 76.4C69.3 74.3 66.3 74 64.2 75.6 62.1 77.2 61.7 80.2 63.4 82.2L140.7 177.4C141.6 178.5 143 179.2 144.5 179.2 146 179.2 147.4 178.5 148.3 177.4L225.6 82.2C227.3 80.1 226.9 77.2 224.8 75.6"/>
    <path fill="#51AEE2" d="M82.1,179.2 C80.7,179.2 79.2,178.6 78.3,177.4 L1.9,83.9 C0.2,81.9 0.6,78.9 2.7,77.3 C4.8,75.7 7.9,76 9.5,78.1 L85.9,171.6 C87.6,173.6 87.2,176.6 85.1,178.2 C84.2,178.9 83.2,179.2 82.1,179.2"/>
  </g>
</svg>
