<?xml version="1.0" encoding="utf-8"?>
<!-- Generator: Adobe Illustrator 19.0.0, SVG Export Plug-In . SVG Version: 6.00 Build 0)  -->
<svg version="1.1" xmlns="http://www.w3.org/2000/svg" xmlns:xlink="http://www.w3.org/1999/xlink" x="0px" y="0px"
	 viewBox="0 0 242.5 194" style="enable-background:new 0 0 242.5 194;" xml:space="preserve">
<style type="text/css">
	.st0{fill:#FFFFFF;stroke:#FFFFFF;stroke-width:4;stroke-miterlimit:10;}
</style>
<g id="_x31__ligne">
</g>
<g id="Symbole">
	<path class="st0" d="M160,161.5c-0.7,0-1.4-0.2-2-0.7c-1.4-1.1-1.7-3.2-0.5-4.6L209.1,91c1.1-1.4,3.2-1.7,4.6-0.5
		c1.4,1.1,1.7,3.2,0.5,4.6l-51.7,65.2C162,161.1,161,161.5,160,161.5z"/>
	<g>
		<path class="st0" d="M146.1,37c-12.4,0-23.1,7.1-28.2,17.5C112.7,44.2,102,37,89.7,37c-17.4,0-31.5,14.1-31.5,31.5
			c0,1.8,1.5,3.3,3.3,3.3s3.3-1.5,3.3-3.3c0-13.8,11.2-24.9,24.9-24.9s24.9,11.2,24.9,24.9c0,1.8,1.5,3.3,3.3,3.3
			c1.8,0,3.3-1.5,3.3-3.3c0-13.8,11.2-24.9,24.9-24.9s24.9,11.2,24.9,24.9c0,1.8,1.5,3.3,3.3,3.3c1.8,0,3.3-1.5,3.3-3.3
			C177.7,51.2,163.5,37,146.1,37z"/>
		<path class="st0" d="M172.2,89.2c-1.4-1.1-3.5-0.9-4.6,0.6l-49.7,63.1L68.2,89.8c-1.1-1.4-3.2-1.7-4.6-0.6
			c-1.4,1.1-1.7,3.2-0.6,4.6l52.3,66.4c0.6,0.8,1.6,1.3,2.6,1.3s2-0.5,2.6-1.3l52.3-66.4C173.9,92.4,173.6,90.4,172.2,89.2z"/>
	</g>
	<path class="st0" d="M75.7,161.5c-1,0-1.9-0.4-2.6-1.2L21.5,95.1c-1.1-1.4-0.9-3.5,0.5-4.6c1.4-1.1,3.5-0.9,4.6,0.5l51.7,65.2
		c1.1,1.4,0.9,3.5-0.5,4.6C77.2,161.3,76.5,161.5,75.7,161.5z"/>
</g>
</svg>
